RobotoSerifText-Semibold.ufo
<glyph name="numbersign" format="1">
  <advance width="628"/>
  <unicode hex="0023"/>
  <outline>
    <contour>
      <point x="81" y="0" type="line"/>
      <point x="164" y="0" type="line"/>
      <point x="331" y="750" type="line"/>
      <point x="248" y="750" type="line"/>
    </contour>
    <contour>
      <point x="20" y="214" type="line"/>
      <point x="552" y="214" type="line"/>
      <point x="552" y="324" type="line"/>
      <point x="20" y="324" type="line"/>
    </contour>
    <contour>
      <point x="69" y="447" type="line"/>
      <point x="601" y="447" type="line"/>
      <point x="601" y="557" type="line"/>
      <point x="69" y="557" type="line"/>
    </contour>
    <contour>
      <point x="281" y="0" type="line"/>
      <point x="364" y="0" type="line"/>
      <point x="531" y="750" type="line"/>
      <point x="446" y="750" type="line"/>
    </contour>
  </outline>
</glyph>
<glyph name="dollar" format="1">
  <advance width="560"/>
  <unicode hex="0024"/>
  <outline>
    <contour>
      <point x="241" y="790" type="line"/>
      <point x="241" y="659" type="line"/>
      <point x="248" y="641" type="line"/>
      <point x="248" y="65" type="line"/>
      <point x="241" y="48" type="line"/>
      <point x="241" y="-120" type="line"/>
      <point x="326" y="-120" type="line"/>
      <point x="326" y="49" type="line"/>
      <point x="318" y="68" type="line"/>
      <point x="318" y="645" type="line"/>
      <point x="326" y="661" type="line"/>
      <point x="326" y="790" type="line"/>
    </contour>
    <contour>
      <point x="282" y="87" type="curve" smooth="yes"/>
      <point x="197" y="87"/>
      <point x="134" y="123"/>
      <point x="100" y="165" type="curve"/>
      <point x="90" y="158"/>
      <point x="118" y="104"/>
      <point x="151" y="105" type="curve"/>
      <point x="151" y="219" type="line"/>
      <point x="29" y="219" type="line"/>
      <point x="29" y="88" type="line"/>
      <point x="74" y="52"/>
      <point x="167" y="12"/>
      <point x="286" y="12" type="curve" smooth="yes"/>
      <point x="435" y="12"/>
      <point x="532" y="83"/>
      <point x="532" y="226" type="curve" smooth="yes"/>
      <point x="532" y="352"/>
      <point x="434" y="404"/>
      <point x="303" y="440" type="curve" smooth="yes"/>
      <point x="231" y="459"/>
      <point x="160" y="472"/>
      <point x="160" y="540" type="curve" smooth="yes"/>
      <point x="160" y="596"/>
      <point x="204" y="624"/>
      <point x="294" y="624" type="curve" smooth="yes"/>
      <point x="359" y="624"/>
      <point x="407" y="603"/>
      <point x="440" y="568" type="curve"/>
      <point x="448" y="584"/>
      <point x="428" y="621"/>
      <point x="398" y="620" type="curve"/>
      <point x="398" y="520" type="line"/>
      <point x="510" y="520" type="line"/>
      <point x="510" y="636" type="line"/>
      <point x="476" y="665"/>
      <point x="393" y="698"/>
      <point x="292" y="698" type="curve" smooth="yes"/>
      <point x="145" y="698"/>
      <point x="49" y="630"/>
      <point x="49" y="505" type="curve" smooth="yes"/>
      <point x="49" y="378"/>
      <point x="144" y="331"/>
      <point x="255" y="299" type="curve" smooth="yes"/>
      <point x="349" y="272"/>
      <point x="413" y="256"/>
      <point x="413" y="181" type="curve" smooth="yes"/>
      <point x="413" y="112"/>
      <point x="366" y="87"/>
    </contour>
  </outline>
</glyph>
<glyph name="ampersand" format="1">
  <advance width="768"/>
  <unicode hex="0026"/>
  <outline>
    <contour>
      <point x="663" y="298" type="curve" smooth="yes"/>
      <point x="670" y="331"/>
      <point x="690" y="336"/>
      <point x="725" y="336" type="curve" smooth="yes"/>
      <point x="733" y="336" type="line"/>
      <point x="733" y="400" type="line"/>
      <point x="525" y="400" type="line"/>
      <point x="525" y="336" type="line"/>
      <point x="530" y="336" type="line" smooth="yes"/>
      <point x="554" y="336"/>
      <point x="588" y="333"/>
      <point x="588" y="326" type="curve" smooth="yes"/>
      <point x="588" y="218"/>
      <point x="480" y="70"/>
      <point x="349" y="70" type="curve" smooth="yes"/>
      <point x="253" y="70"/>
      <point x="201" y="130"/>
      <point x="201" y="222" type="curve" smooth="yes"/>
      <point x="201" y="304"/>
      <point x="242" y="358"/>
      <point x="311" y="389" type="curve"/>
      <point x="280" y="429" type="line"/>
      <point x="142" y="399"/>
      <point x="43" y="324"/>
      <point x="43" y="207" type="curve" smooth="yes"/>
      <point x="43" y="71"/>
      <point x="152" y="-10"/>
      <point x="314" y="-10" type="curve" smooth="yes"/>
      <point x="541" y="-10"/>
      <point x="643" y="205"/>
    </contour>
    <contour>
      <point x="739" y="0" type="line"/>
      <point x="739" y="70" type="line"/>
      <point x="723" y="70" type="line" smooth="yes"/>
      <point x="689" y="70"/>
      <point x="674" y="79"/>
      <point x="649" y="101" type="curve" smooth="yes"/>
      <point x="433" y="290"/>
      <point x="341" y="427"/>
      <point x="341" y="545" type="curve" smooth="yes"/>
      <point x="341" y="615"/>
      <point x="369" y="642"/>
      <point x="410" y="642" type="curve" smooth="yes"/>
      <point x="447" y="642"/>
      <point x="465" y="615"/>
      <point x="465" y="575" type="curve" smooth="yes"/>
      <point x="465" y="510"/>
      <point x="423" y="473"/>
      <point x="326" y="438" type="curve"/>
      <point x="354" y="379" type="line"/>
      <point x="480" y="417"/>
      <point x="579" y="476"/>
      <point x="579" y="576" type="curve" smooth="yes"/>
      <point x="579" y="660"/>
      <point x="517" y="719"/>
      <point x="402" y="719" type="curve" smooth="yes"/>
      <point x="276" y="719"/>
      <point x="191" y="653"/>
      <point x="191" y="539" type="curve" smooth="yes"/>
      <point x="191" y="388"/>
      <point x="348" y="173"/>
      <point x="560" y="0" type="curve"/>
    </contour>
  </outline>
</glyph>
<glyph name="comma" format="1">
  <advance width="315"/>
  <unicode hex="002C"/>
  <outline>
    <contour>
      <point x="132" y="-183" type="line"/>
      <point x="220" y="-112"/>
      <point x="261" y="-32"/>
      <point x="261" y="55" type="curve" smooth="yes"/>
      <point x="261" y="131"/>
      <point x="218" y="167"/>
      <point x="156" y="167" type="curve" smooth="yes"/>
      <point x="98" y="167"/>
      <point x="60" y="129"/>
      <point x="60" y="76" type="curve" smooth="yes"/>
      <point x="60" y="23"/>
      <point x="101" y="-12"/>
      <point x="160" y="-12" type="curve" smooth="yes"/>
      <point x="181" y="-12"/>
      <point x="194" y="-10"/>
      <point x="205" y="3" type="curve"/>
      <point x="194" y="12"/>
      <point x="180" y="26"/>
      <point x="177" y="18" type="curve"/>
      <point x="173" y="-31"/>
      <point x="111" y="-86"/>
      <point x="30" y="-133" type="curve"/>
    </contour>
  </outline>
</glyph>
<glyph name="zero" format="1">
  <advance width="560"/>
  <unicode hex="0030"/>
  <outline>
    <contour>
      <point x="280" y="-11" type="curve" smooth="yes"/>
      <point x="430" y="-11"/>
      <point x="536" y="112"/>
      <point x="536" y="304" type="curve" smooth="yes"/>
      <point x="536" y="496"/>
      <point x="430" y="619"/>
      <point x="280" y="619" type="curve" smooth="yes"/>
      <point x="130" y="619"/>
      <point x="25" y="496"/>
      <point x="25" y="304" type="curve" smooth="yes"/>
      <point x="25" y="112"/>
      <point x="130" y="-11"/>
    </contour>
    <contour>
      <point x="280" y="66" type="curve" smooth="yes"/>
      <point x="218" y="66"/>
      <point x="188" y="134"/>
      <point x="188" y="304" type="curve" smooth="yes"/>
      <point x="188" y="474"/>
      <point x="218" y="543"/>
      <point x="280" y="543" type="curve" smooth="yes"/>
      <point x="342" y="543"/>
      <point x="373" y="474"/>
      <point x="373" y="304" type="curve" smooth="yes"/>
      <point x="373" y="134"/>
      <point x="342" y="66"/>
    </contour>
  </outline>
</glyph>
<glyph name="nine" format="1">
  <advance width="560"/>
  <unicode hex="0039"/>
  <outline>
    <contour>
      <point x="79" y="-25" type="line"/>
      <point x="262" y="-7"/>
      <point x="375" y="105"/>
      <point x="375" y="328" type="curve" smooth="yes"/>
      <point x="375" y="492"/>
      <point x="336" y="544"/>
      <point x="277" y="544" type="curve" smooth="yes"/>
      <point x="220" y="544"/>
      <point x="188" y="493"/>
      <point x="188" y="394" type="curve" smooth="yes"/>
      <point x="188" y="307"/>
      <point x="212" y="252"/>
      <point x="273" y="252" type="curve" smooth="yes"/>
      <point x="330" y="252"/>
      <point x="371" y="298"/>
      <point x="400" y="365" type="curve"/>
      <point x="408" y="302" type="line"/>
      <point x="387" y="239"/>
      <point x="330" y="177"/>
      <point x="233" y="177" type="curve" smooth="yes"/>
      <point x="113" y="177"/>
      <point x="26" y="254"/>
      <point x="26" y="390" type="curve" smooth="yes"/>
      <point x="26" y="529"/>
      <point x="127" y="619"/>
      <point x="274" y="619" type="curve" smooth="yes"/>
      <point x="432" y="619"/>
      <point x="534" y="526"/>
      <point x="534" y="323" type="curve" smooth="yes"/>
      <point x="534" y="86"/>
      <point x="361" y="-76"/>
      <point x="91" y="-100" type="curve"/>
    </contour>
  </outline>
</glyph>
<glyph name="E" format="1">
  <advance width="646"/>
  <unicode hex="0045"/>
  <outline>
    <contour>
      <point x="605" y="226" type="line"/>
      <point x="522" y="226" type="line"/>
      <point x="512" y="119" type="line" smooth="yes"/>
      <point x="509" y="83"/>
      <point x="476" y="76"/>
      <point x="395" y="76" type="curve" smooth="yes"/>
      <point x="284" y="76" type="line"/>
      <point x="284" y="635" type="line"/>
      <point x="382" y="635" type="line" smooth="yes"/>
      <point x="450" y="635"/>
      <point x="485" y="628"/>
      <point x="488" y="592" type="curve" smooth="yes"/>
      <point x="495" y="509" type="line"/>
      <point x="576" y="509" type="line"/>
      <point x="576" y="710" type="line"/>
      <point x="34" y="710" type="line"/>
      <point x="34" y="646" type="line"/>
      <point x="44" y="646" type="line" smooth="yes"/>
      <point x="81" y="646"/>
      <point x="108" y="639"/>
      <point x="108" y="610" type="curve" smooth="yes"/>
      <point x="108" y="101" type="line" smooth="yes"/>
      <point x="108" y="72"/>
      <point x="81" y="65"/>
      <point x="44" y="65" type="curve" smooth="yes"/>
      <point x="34" y="65" type="line"/>
      <point x="34" y="0" type="line"/>
      <point x="605" y="0" type="line"/>
    </contour>
    <contour>
      <point x="256" y="397" type="line"/>
      <point x="256" y="331" type="line"/>
      <point x="485" y="319" type="line"/>
      <point x="485" y="408" type="line"/>
    </contour>
    <contour>
      <point x="379" y="741" type="move" name="top"/>
    </contour>
    <contour>
      <point x="443" y="0" type="move" name="right"/>
    </contour>
    <contour>
      <point x="379" y="0" type="move" name="bottom"/>
    </contour>
  </outline>
</glyph>
<glyph name="L" format="1">
  <advance width="635"/>
  <unicode hex="004C"/>
  <outline>
    <contour>
      <point x="366" y="710" type="line"/>
      <point x="366" y="646" type="line"/>
      <point x="352" y="646" type="line" smooth="yes"/>
      <point x="313" y="646"/>
      <point x="285" y="639"/>
      <point x="285" y="610" type="curve" smooth="yes"/>
      <point x="285" y="76" type="line"/>
      <point x="390" y="76" type="line" smooth="yes"/>
      <point x="471" y="76"/>
      <point x="505" y="83"/>
      <point x="508" y="119" type="curve" smooth="yes"/>
      <point x="517" y="237" type="line"/>
      <point x="602" y="237" type="line"/>
      <point x="602" y="0" type="line"/>
      <point x="34" y="0" type="line"/>
      <point x="34" y="65" type="line"/>
      <point x="44" y="65" type="line" smooth="yes"/>
      <point x="81" y="65"/>
      <point x="108" y="72"/>
      <point x="108" y="101" type="curve" smooth="yes"/>
      <point x="108" y="610" type="line" smooth="yes"/>
      <point x="108" y="639"/>
      <point x="81" y="646"/>
      <point x="44" y="646" type="curve" smooth="yes"/>
      <point x="34" y="646" type="line"/>
      <point x="34" y="710" type="line"/>
    </contour>
    <contour>
      <point x="379" y="741" type="move" name="top"/>
    </contour>
    <contour>
      <point x="471" y="710" type="move" name="right"/>
    </contour>
    <contour>
      <point x="473" y="410" type="move" name="mid"/>
    </contour>
    <contour>
      <point x="379" y="0" type="move" name="bottom"/>
    </contour>
  </outline>
</glyph>
<glyph name="O" format="1">
  <advance width="804"/>
  <unicode hex="004F"/>
  <outline>
    <contour>
      <point x="402" y="-10" type="curve" smooth="yes"/>
      <point x="613" y="-10"/>
      <point x="767" y="136"/>
      <point x="767" y="355" type="curve" smooth="yes"/>
      <point x="767" y="574"/>
      <point x="613" y="720"/>
      <point x="402" y="720" type="curve" smooth="yes"/>
      <point x="192" y="720"/>
      <point x="38" y="574"/>
      <point x="38" y="355" type="curve" smooth="yes"/>
      <point x="38" y="136"/>
      <point x="192" y="-10"/>
    </contour>
    <contour>
      <point x="402" y="70" type="curve" smooth="yes"/>
      <point x="296" y="70"/>
      <point x="223" y="174"/>
      <point x="223" y="355" type="curve" smooth="yes"/>
      <point x="223" y="537"/>
      <point x="295" y="640"/>
      <point x="402" y="640" type="curve" smooth="yes"/>
      <point x="509" y="640"/>
      <point x="582" y="537"/>
      <point x="582" y="355" type="curve" smooth="yes"/>
      <point x="582" y="173"/>
      <point x="509" y="70"/>
    </contour>
    <contour>
      <point x="397" y="741" type="move" name="top"/>
    </contour>
    <contour>
      <point x="397" y="0" type="move" name="bottom"/>
    </contour>
  </outline>
</glyph>
<glyph name="P" format="1">
  <advance width="685"/>
  <unicode hex="0050"/>
  <outline>
    <contour>
      <point x="35" y="0" type="line"/>
      <point x="370" y="0" type="line"/>
      <point x="370" y="65" type="line"/>
      <point x="344" y="65" type="line" smooth="yes"/>
      <point x="318" y="65"/>
      <point x="286" y="68"/>
      <point x="286" y="75" type="curve" smooth="yes"/>
      <point x="286" y="274" type="line"/>
      <point x="383" y="274" type="line" smooth="yes"/>
      <point x="556" y="274"/>
      <point x="662" y="362"/>
      <point x="662" y="498" type="curve" smooth="yes"/>
      <point x="662" y="631"/>
      <point x="562" y="710"/>
      <point x="388" y="710" type="curve" smooth="yes"/>
      <point x="35" y="710" type="line"/>
      <point x="35" y="646" type="line"/>
      <point x="46" y="646" type="line" smooth="yes"/>
      <point x="83" y="646"/>
      <point x="110" y="639"/>
      <point x="110" y="610" type="curve" smooth="yes"/>
      <point x="110" y="101" type="line" smooth="yes"/>
      <point x="110" y="72"/>
      <point x="83" y="65"/>
      <point x="46" y="65" type="curve" smooth="yes"/>
      <point x="35" y="65" type="line"/>
    </contour>
    <contour>
      <point x="353" y="634" type="line" smooth="yes"/>
      <point x="437" y="634"/>
      <point x="484" y="588"/>
      <point x="484" y="495" type="curve" smooth="yes"/>
      <point x="484" y="402"/>
      <point x="437" y="349"/>
      <point x="349" y="349" type="curve" smooth="yes"/>
      <point x="286" y="349" type="line"/>
      <point x="286" y="634" type="line"/>
    </contour>
  </outline>
</glyph>
<glyph name="R" format="1">
  <advance width="735"/>
  <unicode hex="0052"/>
  <outline>
    <contour>
      <point x="34" y="0" type="line"/>
      <point x="352" y="0" type="line"/>
      <point x="352" y="65" type="line"/>
      <point x="341" y="65" type="line" smooth="yes"/>
      <point x="315" y="65"/>
      <point x="284" y="68"/>
      <point x="284" y="75" type="curve" smooth="yes"/>
      <point x="284" y="292" type="line"/>
      <point x="373" y="292" type="line" smooth="yes"/>
      <point x="553" y="292"/>
      <point x="656" y="375"/>
      <point x="656" y="506" type="curve" smooth="yes"/>
      <point x="656" y="630"/>
      <point x="558" y="710"/>
      <point x="384" y="710" type="curve" smooth="yes"/>
      <point x="34" y="710" type="line"/>
      <point x="34" y="646" type="line"/>
      <point x="44" y="646" type="line" smooth="yes"/>
      <point x="81" y="646"/>
      <point x="108" y="639"/>
      <point x="108" y="610" type="curve" smooth="yes"/>
      <point x="108" y="101" type="line" smooth="yes"/>
      <point x="108" y="72"/>
      <point x="81" y="65"/>
      <point x="44" y="65" type="curve" smooth="yes"/>
      <point x="34" y="65" type="line"/>
    </contour>
    <contour>
      <point x="356" y="636" type="line" smooth="yes"/>
      <point x="434" y="636"/>
      <point x="474" y="585"/>
      <point x="474" y="506" type="curve" smooth="yes"/>
      <point x="474" y="418"/>
      <point x="436" y="365"/>
      <point x="352" y="365" type="curve" smooth="yes"/>
      <point x="284" y="365" type="line"/>
      <point x="284" y="636" type="line"/>
    </contour>
    <contour>
      <point x="360" y="320" type="line"/>
      <point x="505" y="0" type="line"/>
      <point x="715" y="0" type="line"/>
      <point x="715" y="65" type="line"/>
      <point x="706" y="65" type="line" smooth="yes"/>
      <point x="682" y="65"/>
      <point x="665" y="70"/>
      <point x="654" y="93" type="curve" smooth="yes"/>
      <point x="528" y="336" type="line"/>
    </contour>
    <contour>
      <point x="389" y="741" type="move" name="top"/>
    </contour>
    <contour>
      <point x="389" y="0" type="move" name="bottom"/>
    </contour>
  </outline>
</glyph>
<glyph name="S" format="1">
  <advance width="628"/>
  <unicode hex="0053"/>
  <outline>
    <contour>
      <point x="330" y="69" type="curve" smooth="yes"/>
      <point x="240" y="69"/>
      <point x="156" y="127"/>
      <point x="122" y="223" type="curve"/>
      <point x="33" y="223" type="line"/>
      <point x="33" y="0" type="line"/>
      <point x="109" y="0" type="line"/>
      <point x="128" y="170" type="line"/>
      <point x="122" y="174"/>
      <point x="96" y="156"/>
      <point x="74" y="178" type="curve"/>
      <point x="122" y="39"/>
      <point x="227" y="-10"/>
      <point x="343" y="-10" type="curve" smooth="yes"/>
      <point x="498" y="-10"/>
      <point x="598" y="79"/>
      <point x="598" y="220" type="curve" smooth="yes"/>
      <point x="598" y="366"/>
      <point x="490" y="412"/>
      <point x="375" y="443" type="curve" smooth="yes"/>
      <point x="280" y="468"/>
      <point x="200" y="486"/>
      <point x="200" y="556" type="curve" smooth="yes"/>
      <point x="200" y="609"/>
      <point x="238" y="642"/>
      <point x="306" y="642" type="curve" smooth="yes"/>
      <point x="380" y="642"/>
      <point x="440" y="599"/>
      <point x="466" y="522" type="curve"/>
      <point x="550" y="522" type="line"/>
      <point x="550" y="710" type="line"/>
      <point x="478" y="710" type="line"/>
      <point x="459" y="566" type="line"/>
      <point x="475" y="559"/>
      <point x="491" y="569"/>
      <point x="508" y="562" type="curve"/>
      <point x="464" y="683"/>
      <point x="392" y="720"/>
      <point x="286" y="720" type="curve" smooth="yes"/>
      <point x="160" y="720"/>
      <point x="53" y="645"/>
      <point x="53" y="516" type="curve" smooth="yes"/>
      <point x="53" y="371"/>
      <point x="158" y="322"/>
      <point x="263" y="292" type="curve" smooth="yes"/>
      <point x="368" y="262"/>
      <point x="446" y="242"/>
      <point x="446" y="164" type="curve" smooth="yes"/>
      <point x="446" y="100"/>
      <point x="403" y="69"/>
    </contour>
    <contour>
      <point x="345" y="741" type="move" name="top"/>
    </contour>
    <contour>
      <point x="345" y="0" type="move" name="bottom"/>
    </contour>
  </outline>
</glyph>
<glyph name="Z" format="1">
  <advance width="633"/>
  <unicode hex="005A"/>
  <outline>
    <contour>
      <point x="137" y="76" type="line"/>
      <point x="166" y="13" type="line"/>
      <point x="588" y="620" type="line"/>
      <point x="588" y="710" type="line"/>
      <point x="51" y="710" type="line"/>
      <point x="51" y="502" type="line"/>
      <point x="133" y="502" type="line"/>
      <point x="140" y="591" type="line" smooth="yes"/>
      <point x="142" y="627"/>
      <point x="178" y="634"/>
      <point x="246" y="634" type="curve" smooth="yes"/>
      <point x="469" y="634" type="line"/>
      <point x="442" y="685" type="line"/>
      <point x="32" y="94" type="line"/>
      <point x="32" y="0" type="line"/>
      <point x="599" y="0" type="line"/>
      <point x="599" y="228" type="line"/>
      <point x="516" y="228" type="line"/>
      <point x="506" y="119" type="line" smooth="yes"/>
      <point x="502" y="83"/>
      <point x="470" y="76"/>
      <point x="389" y="76" type="curve" smooth="yes"/>
    </contour>
    <contour>
      <point x="329" y="741" type="move" name="top"/>
    </contour>
    <contour>
      <point x="329" y="0" type="move" name="bottom"/>
    </contour>
  </outline>
</glyph>
<glyph name="bracketleft" format="1">
  <advance width="338"/>
  <unicode hex="005B"/>
  <outline>
    <contour>
      <point x="45" y="750" type="line"/>
      <point x="45" y="-130" type="line"/>
      <point x="180" y="-130" type="line"/>
      <point x="180" y="750" type="line"/>
    </contour>
    <contour>
      <point x="317" y="750" type="line"/>
      <point x="85" y="750" type="line"/>
      <point x="85" y="675" type="line"/>
      <point x="317" y="675" type="line"/>
    </contour>
    <contour>
      <point x="317" y="-55" type="line"/>
      <point x="85" y="-55" type="line"/>
      <point x="85" y="-130" type="line"/>
      <point x="317" y="-130" type="line"/>
    </contour>
  </outline>
</glyph>
<glyph name="b" format="1">
  <advance width="668"/>
  <unicode hex="0062"/>
  <outline>
    <contour>
      <point x="459" y="260" type="curve" smooth="yes"/>
      <point x="459" y="147"/>
      <point x="425" y="74"/>
      <point x="354" y="74" type="curve" smooth="yes"/>
      <point x="292" y="74"/>
      <point x="254" y="122"/>
      <point x="221" y="201" type="curve"/>
      <point x="175" y="161" type="line"/>
      <point x="228" y="40"/>
      <point x="286" y="-13"/>
      <point x="395" y="-13" type="curve" smooth="yes"/>
      <point x="535" y="-13"/>
      <point x="631" y="100"/>
      <point x="631" y="260" type="curve" smooth="yes"/>
      <point x="631" y="417"/>
      <point x="541" y="521"/>
      <point x="403" y="521" type="curve" smooth="yes"/>
      <point x="300" y="521"/>
      <point x="250" y="462"/>
      <point x="187" y="342" type="curve"/>
      <point x="222" y="299" type="line"/>
      <point x="259" y="384"/>
      <point x="299" y="435"/>
      <point x="360" y="435" type="curve" smooth="yes"/>
      <point x="426" y="435"/>
      <point x="459" y="371"/>
    </contour>
    <contour>
      <point x="78" y="632" type="curve" smooth="yes"/>
      <point x="78" y="-2" type="line"/>
      <point x="180" y="-2" type="line"/>
      <point x="226" y="106" type="line"/>
      <point x="245" y="115" type="line"/>
      <point x="245" y="733" type="line"/>
      <point x="19" y="733" type="line"/>
      <point x="19" y="670" type="line"/>
      <point x="28" y="668" type="line" smooth="yes"/>
      <point x="63" y="660"/>
      <point x="78" y="655"/>
    </contour>
  </outline>
</glyph>
<glyph name="g" format="1">
  <advance width="610"/>
  <unicode hex="0067"/>
  <outline>
    <contour>
      <point x="260" y="-236" type="curve" smooth="yes"/>
      <point x="309" y="-236" type="line" smooth="yes"/>
      <point x="471" y="-236"/>
      <point x="595" y="-176"/>
      <point x="595" y="-49" type="curve" smooth="yes"/>
      <point x="595" y="42"/>
      <point x="524" y="86"/>
      <point x="394" y="86" type="curve" smooth="yes"/>
      <point x="227" y="86" type="line" smooth="yes"/>
      <point x="182" y="86"/>
      <point x="160" y="97"/>
      <point x="160" y="121" type="curve" smooth="yes"/>
      <point x="160" y="147"/>
      <point x="186" y="168"/>
      <point x="234" y="186" type="curve"/>
      <point x="255" y="218"/>
      <point x="175" y="240"/>
      <point x="159" y="204" type="curve"/>
      <point x="83" y="175"/>
      <point x="35" y="131"/>
      <point x="35" y="74" type="curve" smooth="yes"/>
      <point x="35" y="23"/>
      <point x="64" y="-13"/>
      <point x="123" y="-36" type="curve"/>
      <point x="106" y="-42"/>
      <point x="102" y="-44"/>
      <point x="123" y="-54" type="curve"/>
      <point x="387" y="-54" type="line" smooth="yes"/>
      <point x="440" y="-54"/>
      <point x="456" y="-65"/>
      <point x="456" y="-92" type="curve" smooth="yes"/>
      <point x="456" y="-134"/>
      <point x="399" y="-165"/>
      <point x="300" y="-165" type="curve" smooth="yes"/>
      <point x="270" y="-165" type="line" smooth="yes"/>
      <point x="171" y="-165"/>
      <point x="127" y="-145"/>
      <point x="127" y="-106" type="curve" smooth="yes"/>
      <point x="127" y="-79"/>
      <point x="144" y="-58"/>
      <point x="186" y="-39" type="curve"/>
      <point x="156" y="-9" type="line"/>
      <point x="43" y="-36"/>
      <point x="2" y="-66"/>
      <point x="2" y="-116" type="curve" smooth="yes"/>
      <point x="2" y="-205"/>
      <point x="110" y="-236"/>
    </contour>
    <contour>
      <point x="208" y="338" type="curve" smooth="yes"/>
      <point x="208" y="414"/>
      <point x="238" y="451"/>
      <point x="286" y="451" type="curve" smooth="yes"/>
      <point x="335" y="451"/>
      <point x="364" y="414"/>
      <point x="364" y="338" type="curve" smooth="yes"/>
      <point x="364" y="262"/>
      <point x="335" y="228"/>
      <point x="286" y="228" type="curve" smooth="yes"/>
      <point x="237" y="228"/>
      <point x="208" y="262"/>
    </contour>
    <contour>
      <point x="286" y="160" type="curve" smooth="yes"/>
      <point x="424" y="160"/>
      <point x="519" y="228"/>
      <point x="519" y="339" type="curve" smooth="yes"/>
      <point x="519" y="449"/>
      <point x="423" y="521"/>
      <point x="286" y="521" type="curve" smooth="yes"/>
      <point x="149" y="521"/>
      <point x="54" y="449"/>
      <point x="54" y="339" type="curve" smooth="yes"/>
      <point x="54" y="228"/>
      <point x="147" y="160"/>
    </contour>
    <contour>
      <point x="606" y="411" type="curve"/>
      <point x="606" y="532" type="line"/>
      <point x="523" y="543"/>
      <point x="467" y="497"/>
      <point x="427" y="416" type="curve"/>
      <point x="446" y="409" type="line"/>
      <point x="475" y="427"/>
      <point x="528" y="424"/>
    </contour>
    <contour>
      <point x="271" y="545" type="move" name="top"/>
    </contour>
  </outline>
</glyph>
<glyph name="i" format="1">
  <advance width="330"/>
  <unicode hex="0069"/>
  <outline>
    <contour>
      <point x="167" y="588" type="curve" smooth="yes"/>
      <point x="224" y="588"/>
      <point x="260" y="617"/>
      <point x="260" y="667" type="curve" smooth="yes"/>
      <point x="260" y="716"/>
      <point x="224" y="745"/>
      <point x="167" y="745" type="curve" smooth="yes"/>
      <point x="111" y="745"/>
      <point x="75" y="716"/>
      <point x="75" y="667" type="curve" smooth="yes"/>
      <point x="75" y="617"/>
      <point x="111" y="588"/>
    </contour>
    <contour>
      <point x="254" y="511" type="line"/>
      <point x="27" y="511" type="line"/>
      <point x="27" y="448" type="line"/>
      <point x="36" y="446" type="line" smooth="yes"/>
      <point x="72" y="439"/>
      <point x="87" y="433"/>
      <point x="87" y="411" type="curve" smooth="yes"/>
      <point x="87" y="92" type="line" smooth="yes"/>
      <point x="87" y="67"/>
      <point x="62" y="61"/>
      <point x="29" y="61" type="curve" smooth="yes"/>
      <point x="28" y="61" type="line"/>
      <point x="28" y="0" type="line"/>
      <point x="313" y="0" type="line"/>
      <point x="313" y="61" type="line"/>
      <point x="312" y="61" type="line" smooth="yes"/>
      <point x="279" y="61"/>
      <point x="254" y="67"/>
      <point x="254" y="92" type="curve" smooth="yes"/>
    </contour>
    <contour>
      <point x="169" y="551" type="move" name="top"/>
    </contour>
    <contour>
      <point x="215" y="-10" type="move" name="right"/>
    </contour>
    <contour>
      <point x="167" y="-10" type="move" name="bottom"/>
    </contour>
  </outline>
</glyph>
<glyph name="m" format="1">
  <advance width="956"/>
  <unicode hex="006D"/>
  <outline>
    <contour>
      <point x="27" y="0" type="line"/>
      <point x="299" y="0" type="line"/>
      <point x="299" y="61" type="line"/>
      <point x="297" y="61" type="line" smooth="yes"/>
      <point x="279" y="61"/>
      <point x="254" y="63"/>
      <point x="254" y="70" type="curve" smooth="yes"/>
      <point x="254" y="400" type="line"/>
      <point x="242" y="398" type="line"/>
      <point x="242" y="511" type="line"/>
      <point x="27" y="511" type="line"/>
      <point x="27" y="448" type="line"/>
      <point x="36" y="446" type="line" smooth="yes"/>
      <point x="72" y="439"/>
      <point x="87" y="433"/>
      <point x="87" y="411" type="curve" smooth="yes"/>
      <point x="87" y="92" type="line" smooth="yes"/>
      <point x="87" y="67"/>
      <point x="62" y="61"/>
      <point x="29" y="61" type="curve" smooth="yes"/>
      <point x="27" y="61" type="line"/>
    </contour>
    <contour>
      <point x="612" y="0" type="line"/>
      <point x="612" y="61" type="line"/>
      <point x="611" y="61" type="line" smooth="yes"/>
      <point x="593" y="61"/>
      <point x="566" y="63"/>
      <point x="566" y="70" type="curve" smooth="yes"/>
      <point x="566" y="350" type="line" smooth="yes"/>
      <point x="566" y="464"/>
      <point x="504" y="521"/>
      <point x="410" y="521" type="curve"/>
      <point x="321" y="521"/>
      <point x="263" y="468"/>
      <point x="212" y="369" type="curve"/>
      <point x="236" y="323" type="line"/>
      <point x="268" y="389"/>
      <point x="304" y="427"/>
      <point x="350" y="427" type="curve"/>
      <point x="388" y="427"/>
      <point x="399" y="402"/>
      <point x="399" y="348" type="curve" smooth="yes"/>
      <point x="399" y="70" type="line" smooth="yes"/>
      <point x="399" y="63"/>
      <point x="373" y="61"/>
      <point x="355" y="61" type="curve" smooth="yes"/>
      <point x="353" y="61" type="line"/>
      <point x="353" y="0" type="line"/>
    </contour>
    <contour>
      <point x="939" y="0" type="line"/>
      <point x="939" y="61" type="line"/>
      <point x="936" y="61" type="line" smooth="yes"/>
      <point x="903" y="61"/>
      <point x="879" y="67"/>
      <point x="879" y="92" type="curve" smooth="yes"/>
      <point x="879" y="350" type="line" smooth="yes"/>
      <point x="879" y="464"/>
      <point x="816" y="521"/>
      <point x="723" y="521" type="curve"/>
      <point x="634" y="521"/>
      <point x="579" y="468"/>
      <point x="529" y="379" type="curve"/>
      <point x="548" y="323" type="line"/>
      <point x="581" y="389"/>
      <point x="617" y="427"/>
      <point x="662" y="427" type="curve"/>
      <point x="700" y="427"/>
      <point x="712" y="402"/>
      <point x="712" y="348" type="curve" smooth="yes"/>
      <point x="712" y="70" type="line" smooth="yes"/>
      <point x="712" y="64"/>
      <point x="687" y="61"/>
      <point x="668" y="61" type="curve" smooth="yes"/>
      <point x="666" y="61" type="line"/>
      <point x="666" y="0" type="line"/>
    </contour>
    <contour>
      <point x="463" y="-10" type="move" name="bottom"/>
    </contour>
  </outline>
</glyph>
<glyph name="o" format="1">
  <advance width="641"/>
  <unicode hex="006F"/>
  <outline>
    <contour>
      <point x="321" y="-13" type="curve"/>
      <point x="494" y="-13"/>
      <point x="607" y="95"/>
      <point x="607" y="254" type="curve" smooth="yes"/>
      <point x="607" y="413"/>
      <point x="494" y="521"/>
      <point x="321" y="521" type="curve" smooth="yes"/>
      <point x="147" y="521"/>
      <point x="35" y="413"/>
      <point x="35" y="254" type="curve" smooth="yes"/>
      <point x="35" y="95"/>
      <point x="147" y="-13"/>
    </contour>
    <contour>
      <point x="321" y="63" type="curve"/>
      <point x="248" y="63"/>
      <point x="207" y="130"/>
      <point x="207" y="254" type="curve" smooth="yes"/>
      <point x="207" y="378"/>
      <point x="248" y="445"/>
      <point x="321" y="445" type="curve" smooth="yes"/>
      <point x="393" y="445"/>
      <point x="435" y="378"/>
      <point x="435" y="254" type="curve" smooth="yes"/>
      <point x="435" y="129"/>
      <point x="393" y="63"/>
    </contour>
    <contour>
      <point x="307" y="551" type="move" name="top"/>
    </contour>
    <contour>
      <point x="411" y="0" type="move" name="right"/>
    </contour>
    <contour>
      <point x="307" y="0" type="move" name="bottom"/>
    </contour>
  </outline>
</glyph>
<glyph name="u" format="1">
  <advance width="652"/>
  <unicode hex="0075"/>
  <outline>
    <contour>
      <point x="243" y="511" type="line"/>
      <point x="16" y="511" type="line"/>
      <point x="16" y="448" type="line"/>
      <point x="26" y="446" type="line" smooth="yes"/>
      <point x="61" y="439"/>
      <point x="76" y="433"/>
      <point x="76" y="411" type="curve" smooth="yes"/>
      <point x="76" y="161" type="line" smooth="yes"/>
      <point x="76" y="47"/>
      <point x="143" y="-11"/>
      <point x="243" y="-11" type="curve" smooth="yes"/>
      <point x="338" y="-11"/>
      <point x="405" y="43"/>
      <point x="455" y="151" type="curve"/>
      <point x="427" y="189" type="line"/>
      <point x="394" y="122"/>
      <point x="353" y="84"/>
      <point x="303" y="84" type="curve" smooth="yes"/>
      <point x="258" y="84"/>
      <point x="243" y="109"/>
      <point x="243" y="164" type="curve"/>
    </contour>
    <contour>
      <point x="576" y="511" type="line"/>
      <point x="335" y="511" type="line"/>
      <point x="335" y="448" type="line"/>
      <point x="351" y="446" type="line"/>
      <point x="387" y="440"/>
      <point x="409" y="433"/>
      <point x="409" y="411" type="curve" smooth="yes"/>
      <point x="409" y="112" type="line"/>
      <point x="421" y="113" type="line"/>
      <point x="421" y="0" type="line"/>
      <point x="636" y="0" type="line"/>
      <point x="636" y="63" type="line"/>
      <point x="631" y="64" type="line" smooth="yes"/>
      <point x="597" y="67"/>
      <point x="576" y="72"/>
      <point x="576" y="95" type="curve" smooth="yes"/>
    </contour>
    <contour>
      <point x="292" y="551" type="move" name="top"/>
    </contour>
    <contour>
      <point x="455" y="0" type="move" name="right"/>
    </contour>
    <contour>
      <point x="289" y="0" type="move" name="bottom"/>
    </contour>
  </outline>
</glyph>
<glyph name="y" format="1">
  <advance width="602"/>
  <unicode hex="0079"/>
  <outline>
    <contour>
      <point x="320" y="13" type="line"/>
      <point x="365" y="101" type="line"/>
      <point x="228" y="442" type="line"/>
      <point x="228" y="449"/>
      <point x="264" y="451"/>
      <point x="297" y="451" type="curve" smooth="yes"/>
      <point x="298" y="451" type="line"/>
      <point x="298" y="511" type="line"/>
      <point x="7" y="511" type="line"/>
      <point x="7" y="451" type="line"/>
      <point x="8" y="451" type="line"/>
      <point x="40" y="451"/>
      <point x="55" y="443"/>
      <point x="67" y="416" type="curve" smooth="yes"/>
      <point x="271" y="-47" type="line"/>
    </contour>
    <contour>
      <point x="365" y="19" type="curve" smooth="yes"/>
      <point x="533" y="406" type="line" smooth="yes"/>
      <point x="548" y="440"/>
      <point x="568" y="451"/>
      <point x="594" y="451" type="curve"/>
      <point x="595" y="451" type="line"/>
      <point x="595" y="511" type="line"/>
      <point x="394" y="511" type="line"/>
      <point x="394" y="451" type="line"/>
      <point x="397" y="451" type="line" smooth="yes"/>
      <point x="429" y="451"/>
      <point x="461" y="442"/>
      <point x="461" y="429" type="curve"/>
      <point x="308" y="72" type="line"/>
      <point x="289" y="29" type="line" smooth="yes"/>
      <point x="243" y="-86"/>
      <point x="194" y="-113"/>
      <point x="134" y="-113" type="curve" smooth="yes"/>
      <point x="89" y="-113"/>
      <point x="48" y="-91"/>
      <point x="40" y="-89" type="curve"/>
      <point x="40" y="-213" type="line"/>
      <point x="55" y="-224"/>
      <point x="81" y="-234"/>
      <point x="120" y="-234" type="curve" smooth="yes"/>
      <point x="218" y="-234"/>
      <point x="287" y="-160"/>
    </contour>
    <contour>
      <point x="300" y="551" type="move" name="top"/>
    </contour>
    <contour>
      <point x="309" y="-211" type="move" name="bottom"/>
    </contour>
  </outline>
</glyph>
<glyph name="asciitilde" format="1">
  <advance width="534"/>
  <unicode hex="007E"/>
  <outline>
    <contour>
      <point x="347" y="265" type="curve" smooth="yes"/>
      <point x="426" y="265"/>
      <point x="469" y="328"/>
      <point x="494" y="431" type="curve"/>
      <point x="417" y="455" type="line"/>
      <point x="404" y="421"/>
      <point x="392" y="391"/>
      <point x="353" y="391" type="curve" smooth="yes"/>
      <point x="298" y="391"/>
      <point x="265" y="449"/>
      <point x="183" y="449" type="curve" smooth="yes"/>
      <point x="99" y="449"/>
      <point x="61" y="388"/>
      <point x="40" y="283" type="curve"/>
      <point x="118" y="259" type="line"/>
      <point x="128" y="295"/>
      <point x="137" y="324"/>
      <point x="176" y="324" type="curve" smooth="yes"/>
      <point x="227" y="324"/>
      <point x="266" y="265"/>
    </contour>
  </outline>
</glyph>
<glyph name="cent" format="1">
  <advance width="560"/>
  <unicode hex="00A2"/>
  <outline>
    <contour>
      <point x="270" y="623" type="line"/>
      <point x="270" y="477" type="line"/>
      <point x="281" y="463" type="line"/>
      <point x="281" y="43" type="line"/>
      <point x="270" y="26" type="line"/>
      <point x="270" y="-126" type="line"/>
      <point x="355" y="-126" type="line"/>
      <point x="355" y="24" type="line"/>
      <point x="344" y="38" type="line"/>
      <point x="344" y="468" type="line"/>
      <point x="355" y="486" type="line"/>
      <point x="355" y="623" type="line"/>
    </contour>
    <contour>
      <point x="332" y="63" type="curve" smooth="yes"/>
      <point x="242" y="63"/>
      <point x="183" y="124"/>
      <point x="183" y="251" type="curve" smooth="yes"/>
      <point x="183" y="379"/>
      <point x="224" y="447"/>
      <point x="320" y="447" type="curve" smooth="yes"/>
      <point x="385" y="447"/>
      <point x="421" y="420"/>
      <point x="438" y="397" type="curve"/>
      <point x="464" y="398"/>
      <point x="468" y="437"/>
      <point x="410" y="451" type="curve"/>
      <point x="410" y="327" type="line"/>
      <point x="524" y="327" type="line"/>
      <point x="524" y="458" type="line"/>
      <point x="498" y="479"/>
      <point x="431" y="521"/>
      <point x="313" y="521" type="curve" smooth="yes"/>
      <point x="144" y="521"/>
      <point x="29" y="415"/>
      <point x="29" y="251" type="curve" smooth="yes"/>
      <point x="29" y="89"/>
      <point x="152" y="-13"/>
      <point x="312" y="-13" type="curve" smooth="yes"/>
      <point x="429" y="-13"/>
      <point x="491" y="46"/>
      <point x="533" y="124" type="curve"/>
      <point x="473" y="168" type="line"/>
      <point x="444" y="122"/>
      <point x="406" y="63"/>
    </contour>
  </outline>
</glyph>
<glyph name="section" format="1">
  <advance width="655"/>
  <unicode hex="00A7"/>
  <outline>
    <contour>
      <point x="316" y="413" type="line"/>
      <point x="139" y="421"/>
      <point x="34" y="365"/>
      <point x="34" y="252" type="curve" smooth="yes"/>
      <point x="34" y="143"/>
      <point x="136" y="97"/>
      <point x="238" y="53" type="curve" smooth="yes"/>
      <point x="327" y="14"/>
      <point x="408" y="-10"/>
      <point x="408" y="-80" type="curve" smooth="yes"/>
      <point x="408" y="-129"/>
      <point x="373" y="-158"/>
      <point x="307" y="-158" type="curve" smooth="yes"/>
      <point x="240" y="-158"/>
      <point x="199" y="-131"/>
      <point x="165" y="-76" type="curve"/>
      <point x="156" y="-80"/>
      <point x="178" y="-133"/>
      <point x="211" y="-152" type="curve"/>
      <point x="211" y="-35" type="line"/>
      <point x="66" y="-35" type="line"/>
      <point x="66" y="-153" type="line"/>
      <point x="112" y="-201"/>
      <point x="196" y="-236"/>
      <point x="311" y="-236" type="curve" smooth="yes"/>
      <point x="450" y="-236"/>
      <point x="551" y="-164"/>
      <point x="551" y="-45" type="curve" smooth="yes"/>
      <point x="551" y="67"/>
      <point x="451" y="125"/>
      <point x="349" y="169" type="curve" smooth="yes"/>
      <point x="259" y="209"/>
      <point x="177" y="232"/>
      <point x="177" y="292" type="curve" smooth="yes"/>
      <point x="177" y="350"/>
      <point x="241" y="375"/>
      <point x="334" y="383" type="curve"/>
    </contour>
    <contour>
      <point x="388" y="74" type="line"/>
      <point x="540" y="93"/>
      <point x="619" y="147"/>
      <point x="619" y="254" type="curve" smooth="yes"/>
      <point x="619" y="362"/>
      <point x="516" y="405"/>
      <point x="410" y="450" type="curve" smooth="yes"/>
      <point x="325" y="487"/>
      <point x="247" y="509"/>
      <point x="247" y="572" type="curve" smooth="yes"/>
      <point x="247" y="613"/>
      <point x="280" y="643"/>
      <point x="345" y="643" type="curve" smooth="yes"/>
      <point x="400" y="643"/>
      <point x="437" y="616"/>
      <point x="459" y="577" type="curve"/>
      <point x="474" y="605"/>
      <point x="444" y="631"/>
      <point x="420" y="632" type="curve"/>
      <point x="420" y="541" type="line"/>
      <point x="555" y="541" type="line"/>
      <point x="555" y="644" type="line"/>
      <point x="527" y="682"/>
      <point x="449" y="720"/>
      <point x="346" y="720" type="curve" smooth="yes"/>
      <point x="201" y="720"/>
      <point x="104" y="654"/>
      <point x="104" y="546" type="curve" smooth="yes"/>
      <point x="104" y="432"/>
      <point x="202" y="376"/>
      <point x="299" y="334" type="curve" smooth="yes"/>
      <point x="391" y="294"/>
      <point x="476" y="267"/>
      <point x="476" y="209" type="curve" smooth="yes"/>
      <point x="476" y="161"/>
      <point x="434" y="138"/>
      <point x="376" y="121" type="curve"/>
    </contour>
  </outline>
</glyph>
<glyph name="registered" format="1">
  <advance width="850"/>
  <unicode hex="00AE"/>
  <outline>
    <contour>
      <point x="114" y="355" type="curve" smooth="yes"/>
      <point x="114" y="535"/>
      <point x="242" y="676"/>
      <point x="425" y="676" type="curve" smooth="yes"/>
      <point x="607" y="676"/>
      <point x="736" y="535"/>
      <point x="736" y="355" type="curve" smooth="yes"/>
      <point x="736" y="175"/>
      <point x="607" y="34"/>
      <point x="425" y="34" type="curve" smooth="yes"/>
      <point x="242" y="34"/>
      <point x="114" y="175"/>
    </contour>
    <contour>
      <point x="35" y="355" type="curve" smooth="yes"/>
      <point x="35" y="135"/>
      <point x="202" y="-34"/>
      <point x="425" y="-34" type="curve" smooth="yes"/>
      <point x="649" y="-34"/>
      <point x="815" y="135"/>
      <point x="815" y="355" type="curve" smooth="yes"/>
      <point x="815" y="575"/>
      <point x="649" y="744"/>
      <point x="425" y="744" type="curve" smooth="yes"/>
      <point x="202" y="744"/>
      <point x="35" y="575"/>
    </contour>
    <contour>
      <point x="241" y="153" type="line"/>
      <point x="429" y="153" type="line"/>
      <point x="429" y="206" type="line"/>
      <point x="424" y="206" type="line" smooth="yes"/>
      <point x="410" y="206"/>
      <point x="394" y="207"/>
      <point x="394" y="211" type="curve" smooth="yes"/>
      <point x="394" y="309" type="line"/>
      <point x="432" y="309" type="line" smooth="yes"/>
      <point x="539" y="309"/>
      <point x="604" y="359"/>
      <point x="604" y="437" type="curve" smooth="yes"/>
      <point x="604" y="513"/>
      <point x="545" y="557"/>
      <point x="435" y="557" type="curve" smooth="yes"/>
      <point x="241" y="557" type="line"/>
      <point x="241" y="504" type="line"/>
      <point x="246" y="504" type="line" smooth="yes"/>
      <point x="268" y="504"/>
      <point x="285" y="500"/>
      <point x="285" y="484" type="curve" smooth="yes"/>
      <point x="285" y="226" type="line" smooth="yes"/>
      <point x="285" y="210"/>
      <point x="268" y="206"/>
      <point x="246" y="206" type="curve" smooth="yes"/>
      <point x="241" y="206" type="line"/>
    </contour>
    <contour>
      <point x="422" y="499" type="line" smooth="yes"/>
      <point x="468" y="499"/>
      <point x="493" y="480"/>
      <point x="493" y="432" type="curve" smooth="yes"/>
      <point x="493" y="383"/>
      <point x="468" y="358"/>
      <point x="419" y="358" type="curve" smooth="yes"/>
      <point x="394" y="358" type="line"/>
      <point x="394" y="499" type="line"/>
    </contour>
    <contour>
      <point x="417" y="335" type="line"/>
      <point x="494" y="152" type="line"/>
      <point x="623" y="152" type="line"/>
      <point x="623" y="205" type="line"/>
      <point x="613" y="205" type="line" smooth="yes"/>
      <point x="598" y="205"/>
      <point x="587" y="208"/>
      <point x="581" y="221" type="curve" smooth="yes"/>
      <point x="513" y="364" type="line"/>
    </contour>
  </outline>
</glyph>
<glyph name="paragraph" format="1">
  <advance width="637"/>
  <unicode hex="00B6"/>
  <outline>
    <contour>
      <point x="609" y="710" type="line"/>
      <point x="609" y="646" type="line"/>
      <point x="598" y="646" type="line" smooth="yes"/>
      <point x="561" y="646"/>
      <point x="534" y="639"/>
      <point x="534" y="610" type="curve" smooth="yes"/>
      <point x="534" y="0" type="line"/>
      <point x="434" y="0" type="line"/>
      <point x="434" y="710" type="line"/>
    </contour>
    <contour>
      <point x="356" y="0" type="line"/>
      <point x="256" y="0" type="line"/>
      <point x="256" y="315" type="line"/>
      <point x="251" y="315" type="line" smooth="yes"/>
      <point x="115" y="315"/>
      <point x="30" y="399"/>
      <point x="30" y="518" type="curve" smooth="yes"/>
      <point x="30" y="635"/>
      <point x="111" y="710"/>
      <point x="246" y="710" type="curve" smooth="yes"/>
      <point x="356" y="710" type="line"/>
    </contour>
    <contour>
      <point x="465" y="710" type="line"/>
      <point x="465" y="646" type="line"/>
      <point x="300" y="646" type="line"/>
      <point x="300" y="710" type="line"/>
    </contour>
  </outline>
</glyph>
<glyph name="multiply" format="1">
  <advance width="560"/>
  <unicode hex="00D7"/>
  <outline>
    <contour>
      <point x="139" y="549" type="line"/>
      <point x="70" y="480" type="line"/>
      <point x="417" y="132" type="line"/>
      <point x="486" y="201" type="line"/>
    </contour>
    <contour>
      <point x="417" y="549" type="line"/>
      <point x="70" y="201" type="line"/>
      <point x="139" y="132" type="line"/>
      <point x="485" y="480" type="line"/>
    </contour>
  </outline>
</glyph>
<glyph name="divide" format="1">
  <advance width="560"/>
  <unicode hex="00F7"/>
  <outline>
    <contour>
      <point x="366" y="149" type="curve" smooth="yes"/>
      <point x="366" y="195"/>
      <point x="333" y="227"/>
      <point x="280" y="227" type="curve" smooth="yes"/>
      <point x="227" y="227"/>
      <point x="194" y="195"/>
      <point x="194" y="149" type="curve" smooth="yes"/>
      <point x="194" y="102"/>
      <point x="227" y="71"/>
      <point x="280" y="71" type="curve" smooth="yes"/>
      <point x="333" y="71"/>
      <point x="366" y="102"/>
    </contour>
    <contour>
      <point x="366" y="533" type="curve" smooth="yes"/>
      <point x="366" y="580"/>
      <point x="333" y="612"/>
      <point x="280" y="612" type="curve" smooth="yes"/>
      <point x="227" y="612"/>
      <point x="194" y="580"/>
      <point x="194" y="533" type="curve" smooth="yes"/>
      <point x="194" y="488"/>
      <point x="227" y="456"/>
      <point x="280" y="456" type="curve" smooth="yes"/>
      <point x="333" y="456"/>
      <point x="366" y="488"/>
    </contour>
    <component base="minus"/>
  </outline>
</glyph>
<glyph name="oslash" format="1">
  <advance width="641"/>
  <unicode hex="00F8"/>
  <outline>
    <contour>
      <point x="537" y="523" type="line"/>
      <point x="4" y="-15" type="line"/>
      <point x="99" y="-15" type="line"/>
      <point x="632" y="523" type="line"/>
    </contour>
    <contour>
      <point x="321" y="-13" type="curve"/>
      <point x="494" y="-13"/>
      <point x="607" y="95"/>
      <point x="607" y="254" type="curve" smooth="yes"/>
      <point x="607" y="413"/>
      <point x="494" y="521"/>
      <point x="321" y="521" type="curve" smooth="yes"/>
      <point x="147" y="521"/>
      <point x="35" y="414"/>
      <point x="35" y="254" type="curve" smooth="yes"/>
      <point x="35" y="95"/>
      <point x="147" y="-13"/>
    </contour>
    <contour>
      <point x="319" y="63" type="curve"/>
      <point x="237" y="63"/>
      <point x="198" y="125"/>
      <point x="198" y="254" type="curve" smooth="yes"/>
      <point x="198" y="379"/>
      <point x="242" y="445"/>
      <point x="322" y="445" type="curve" smooth="yes"/>
      <point x="404" y="445"/>
      <point x="443" y="383"/>
      <point x="443" y="254" type="curve" smooth="yes"/>
      <point x="443" y="129"/>
      <point x="399" y="63"/>
    </contour>
    <contour>
      <point x="307" y="551" type="move" name="top"/>
    </contour>
  </outline>
</glyph>
<glyph name="thorn" format="1">
  <advance width="668"/>
  <unicode hex="00FE"/>
  <outline>
    <contour>
      <point x="20" y="-223" type="line"/>
      <point x="325" y="-223" type="line"/>
      <point x="325" y="-163" type="line"/>
      <point x="309" y="-163" type="line" smooth="yes"/>
      <point x="285" y="-163"/>
      <point x="246" y="-160"/>
      <point x="246" y="-154" type="curve"/>
      <point x="246" y="733" type="line"/>
      <point x="20" y="733" type="line"/>
      <point x="20" y="670" type="line"/>
      <point x="28" y="668" type="line" smooth="yes"/>
      <point x="63" y="660"/>
      <point x="79" y="655"/>
      <point x="79" y="632" type="curve" smooth="yes"/>
      <point x="79" y="-132" type="line" smooth="yes"/>
      <point x="79" y="-156"/>
      <point x="54" y="-163"/>
      <point x="21" y="-163" type="curve"/>
      <point x="20" y="-163" type="line"/>
    </contour>
    <contour>
      <point x="460" y="260" type="curve" smooth="yes"/>
      <point x="460" y="147"/>
      <point x="426" y="74"/>
      <point x="354" y="74" type="curve" smooth="yes"/>
      <point x="292" y="74"/>
      <point x="255" y="122"/>
      <point x="222" y="201" type="curve"/>
      <point x="175" y="161" type="line"/>
      <point x="229" y="40"/>
      <point x="286" y="-13"/>
      <point x="395" y="-13" type="curve" smooth="yes"/>
      <point x="536" y="-13"/>
      <point x="632" y="100"/>
      <point x="632" y="260" type="curve" smooth="yes"/>
      <point x="632" y="417"/>
      <point x="542" y="521"/>
      <point x="403" y="521" type="curve" smooth="yes"/>
      <point x="301" y="521"/>
      <point x="251" y="462"/>
      <point x="187" y="342" type="curve"/>
      <point x="223" y="299" type="line"/>
      <point x="260" y="384"/>
      <point x="300" y="435"/>
      <point x="360" y="435" type="curve" smooth="yes"/>
      <point x="427" y="435"/>
      <point x="460" y="371"/>
    </contour>
  </outline>
</glyph>
<glyph name="lslash" format="1">
  <advance width="355"/>
  <unicode hex="0142"/>
  <outline>
    <contour>
      <point x="25" y="189" type="line"/>
      <point x="343" y="440" type="line"/>
      <point x="343" y="526" type="line"/>
      <point x="25" y="276" type="line"/>
    </contour>
    <component base="l" xOffset="15"/>
  </outline>
</glyph>
<glyph name="eng" format="1">
  <advance width="637"/>
  <unicode hex="014B"/>
  <outline>
    <contour>
      <point x="27" y="0" type="line"/>
      <point x="306" y="0" type="line"/>
      <point x="306" y="61" type="line"/>
      <point x="303" y="61" type="line" smooth="yes"/>
      <point x="284" y="61"/>
      <point x="253" y="63"/>
      <point x="253" y="70" type="curve" smooth="yes"/>
      <point x="253" y="399" type="line"/>
      <point x="242" y="403" type="line"/>
      <point x="242" y="511" type="line"/>
      <point x="27" y="511" type="line"/>
      <point x="27" y="448" type="line"/>
      <point x="36" y="446" type="line" smooth="yes"/>
      <point x="71" y="438"/>
      <point x="86" y="433"/>
      <point x="86" y="411" type="curve" smooth="yes"/>
      <point x="86" y="92" type="line" smooth="yes"/>
      <point x="86" y="67"/>
      <point x="62" y="61"/>
      <point x="29" y="61" type="curve" smooth="yes"/>
      <point x="27" y="61" type="line"/>
    </contour>
    <contour>
      <point x="590" y="350" type="line" smooth="yes"/>
      <point x="590" y="464"/>
      <point x="523" y="521"/>
      <point x="422" y="521" type="curve" smooth="yes"/>
      <point x="328" y="521"/>
      <point x="265" y="470"/>
      <point x="214" y="375" type="curve"/>
      <point x="237" y="323" type="line"/>
      <point x="270" y="389"/>
      <point x="311" y="427"/>
      <point x="363" y="427" type="curve" smooth="yes"/>
      <point x="408" y="427"/>
      <point x="423" y="402"/>
      <point x="423" y="347" type="curve"/>
      <point x="423" y="-35" type="line" smooth="yes"/>
      <point x="423" y="-128"/>
      <point x="393" y="-158"/>
      <point x="340" y="-158" type="curve" smooth="yes"/>
      <point x="311" y="-158"/>
      <point x="287" y="-150"/>
      <point x="265" y="-143" type="curve"/>
      <point x="265" y="-223" type="line"/>
      <point x="282" y="-230"/>
      <point x="322" y="-236"/>
      <point x="366" y="-236" type="curve" smooth="yes"/>
      <point x="503" y="-236"/>
      <point x="590" y="-182"/>
      <point x="590" y="-19" type="curve" smooth="yes"/>
    </contour>
  </outline>
</glyph>
<glyph name="OE" format="1">
  <advance width="1022"/>
  <unicode hex="0152"/>
  <outline>
    <contour>
      <point x="505" y="75" type="line"/>
      <point x="433" y="75" type="line" smooth="yes"/>
      <point x="306" y="75"/>
      <point x="222" y="175"/>
      <point x="222" y="353" type="curve" smooth="yes"/>
      <point x="222" y="531"/>
      <point x="306" y="635"/>
      <point x="433" y="635" type="curve" smooth="yes"/>
      <point x="505" y="635" type="line"/>
    </contour>
    <contour>
      <point x="981" y="0" type="line"/>
      <point x="981" y="226" type="line"/>
      <point x="906" y="226" type="line"/>
      <point x="896" y="119" type="line" smooth="yes"/>
      <point x="893" y="82"/>
      <point x="860" y="76"/>
      <point x="779" y="76" type="curve" smooth="yes"/>
      <point x="681" y="76" type="line"/>
      <point x="681" y="635" type="line"/>
      <point x="766" y="635" type="line" smooth="yes"/>
      <point x="834" y="635"/>
      <point x="869" y="628"/>
      <point x="872" y="592" type="curve" smooth="yes"/>
      <point x="879" y="509" type="line"/>
      <point x="952" y="509" type="line"/>
      <point x="952" y="710" type="line"/>
      <point x="427" y="710" type="line" smooth="yes"/>
      <point x="197" y="710"/>
      <point x="38" y="574"/>
      <point x="38" y="353" type="curve" smooth="yes"/>
      <point x="38" y="131"/>
      <point x="197" y="0"/>
      <point x="427" y="0" type="curve" smooth="yes"/>
    </contour>
    <contour>
      <point x="652" y="397" type="line"/>
      <point x="652" y="330" type="line"/>
      <point x="869" y="319" type="line"/>
      <point x="869" y="408" type="line"/>
    </contour>
  </outline>
</glyph>
<glyph name="Tbar" format="1">
  <advance width="714"/>
  <unicode hex="0166"/>
  <outline>
    <contour>
      <point x="122" y="366" type="line"/>
      <point x="122" y="290" type="line"/>
      <point x="592" y="290" type="line"/>
      <point x="592" y="366" type="line"/>
    </contour>
    <component base="T"/>
  </outline>
</glyph>
<glyph name="Oogonek" format="1">
  <advance width="804"/>
  <unicode hex="01EA"/>
  <outline>
    <contour>
      <point x="402" y="70" type="curve" smooth="yes"/>
      <point x="296" y="70"/>
      <point x="223" y="174"/>
      <point x="223" y="355" type="curve" smooth="yes"/>
      <point x="223" y="537"/>
      <point x="295" y="640"/>
      <point x="402" y="640" type="curve" smooth="yes"/>
      <point x="509" y="640"/>
      <point x="582" y="537"/>
      <point x="582" y="355" type="curve" smooth="yes"/>
      <point x="582" y="174"/>
      <point x="509" y="70"/>
    </contour>
    <contour>
      <point x="542" y="32" type="line"/>
      <point x="398" y="-14"/>
      <point x="315" y="-64"/>
      <point x="315" y="-142" type="curve" smooth="yes"/>
      <point x="315" y="-206"/>
      <point x="366" y="-241"/>
      <point x="442" y="-241" type="curve" smooth="yes"/>
      <point x="509" y="-241"/>
      <point x="546" y="-216"/>
      <point x="577" y="-178" type="curve"/>
      <point x="538" y="-135" type="line"/>
      <point x="527" y="-146"/>
      <point x="509" y="-163"/>
      <point x="485" y="-163" type="curve" smooth="yes"/>
      <point x="462" y="-163"/>
      <point x="447" y="-149"/>
      <point x="447" y="-119" type="curve" smooth="yes"/>
      <point x="447" y="-32"/>
      <point x="563" y="-7"/>
      <point x="659" y="87" type="curve" smooth="yes"/>
      <point x="729" y="152"/>
      <point x="767" y="248"/>
      <point x="767" y="355" type="curve" smooth="yes"/>
      <point x="767" y="574"/>
      <point x="613" y="720"/>
      <point x="402" y="720" type="curve" smooth="yes"/>
      <point x="192" y="720"/>
      <point x="38" y="574"/>
      <point x="38" y="355" type="curve" smooth="yes"/>
      <point x="38" y="136"/>
      <point x="192" y="-10"/>
      <point x="402" y="-10" type="curve" smooth="yes"/>
      <point x="446" y="-10"/>
      <point x="488" y="-4"/>
      <point x="527" y="9" type="curve"/>
    </contour>
  </outline>
</glyph>
<glyph name="oogonek" format="1">
  <advance width="641"/>
  <unicode hex="01EB"/>
  <outline>
    <contour>
      <point x="321" y="63" type="curve"/>
      <point x="248" y="63"/>
      <point x="207" y="130"/>
      <point x="207" y="254" type="curve" smooth="yes"/>
      <point x="207" y="378"/>
      <point x="248" y="445"/>
      <point x="321" y="445" type="curve" smooth="yes"/>
      <point x="393" y="445"/>
      <point x="435" y="378"/>
      <point x="435" y="254" type="curve" smooth="yes"/>
      <point x="435" y="129"/>
      <point x="393" y="63"/>
    </contour>
    <contour>
      <point x="367" y="-241" type="curve" smooth="yes"/>
      <point x="434" y="-241"/>
      <point x="471" y="-216"/>
      <point x="502" y="-178" type="curve"/>
      <point x="463" y="-135" type="line"/>
      <point x="452" y="-146"/>
      <point x="434" y="-163"/>
      <point x="410" y="-163" type="curve" smooth="yes"/>
      <point x="387" y="-163"/>
      <point x="372" y="-149"/>
      <point x="372" y="-119" type="curve" smooth="yes"/>
      <point x="372" y="-58"/>
      <point x="434" y="-16"/>
      <point x="508" y="44" type="curve" smooth="yes"/>
      <point x="571" y="94"/>
      <point x="607" y="163"/>
      <point x="607" y="254" type="curve" smooth="yes"/>
      <point x="607" y="413"/>
      <point x="494" y="521"/>
      <point x="321" y="521" type="curve" smooth="yes"/>
      <point x="147" y="521"/>
      <point x="35" y="413"/>
      <point x="35" y="254" type="curve" smooth="yes"/>
      <point x="35" y="95"/>
      <point x="147" y="-13"/>
      <point x="321" y="-13" type="curve"/>
      <point x="369" y="-13"/>
      <point x="413" y="-5"/>
      <point x="451" y="12" type="curve"/>
      <point x="461" y="39" type="line"/>
      <point x="316" y="-15"/>
      <point x="240" y="-67"/>
      <point x="240" y="-142" type="curve" smooth="yes"/>
      <point x="240" y="-206"/>
      <point x="291" y="-241"/>
    </contour>
  </outline>
</glyph>
<glyph name="ring" format="1">
  <advance width="500"/>
  <unicode hex="02DA"/>
  <outline>
    <contour>
      <point x="204" y="666" type="curve" smooth="yes"/>
      <point x="204" y="702"/>
      <point x="225" y="719"/>
      <point x="250" y="719" type="curve" smooth="yes"/>
      <point x="276" y="719"/>
      <point x="296" y="702"/>
      <point x="296" y="666" type="curve" smooth="yes"/>
      <point x="296" y="631"/>
      <point x="277" y="613"/>
      <point x="250" y="613" type="curve" smooth="yes"/>
      <point x="224" y="613"/>
      <point x="204" y="631"/>
    </contour>
    <contour>
      <point x="381" y="666" type="curve" smooth="yes"/>
      <point x="381" y="735"/>
      <point x="324" y="771"/>
      <point x="250" y="771" type="curve" smooth="yes"/>
      <point x="176" y="771"/>
      <point x="120" y="735"/>
      <point x="120" y="666" type="curve" smooth="yes"/>
      <point x="120" y="598"/>
      <point x="176" y="562"/>
      <point x="250" y="562" type="curve" smooth="yes"/>
      <point x="324" y="562"/>
      <point x="381" y="598"/>
    </contour>
    <contour>
      <point x="250" y="526" type="move" name="_top"/>
    </contour>
  </outline>
</glyph>
<glyph name="cedillacomb" format="1">
  <advance width="300"/>
  <unicode hex="033C"/>
  <outline>
    <contour>
      <point x="24" y="4" type="line"/>
      <point x="-54" y="4" type="line"/>
      <point x="-85" y="-98" type="line"/>
      <point x="-61" y="-98" type="line" smooth="yes"/>
      <point x="-11" y="-98"/>
      <point x="6" y="-114"/>
      <point x="6" y="-138" type="curve" smooth="yes"/>
      <point x="6" y="-161"/>
      <point x="-10" y="-175"/>
      <point x="-35" y="-175" type="curve" smooth="yes"/>
      <point x="-65" y="-175"/>
      <point x="-90" y="-158"/>
      <point x="-112" y="-136" type="curve"/>
      <point x="-154" y="-186" type="line"/>
      <point x="-125" y="-218"/>
      <point x="-84" y="-237"/>
      <point x="-23" y="-237" type="curve" smooth="yes"/>
      <point x="53" y="-237"/>
      <point x="110" y="-208"/>
      <point x="110" y="-141" type="curve" smooth="yes"/>
      <point x="110" y="-83"/>
      <point x="56" y="-51"/>
      <point x="-25" y="-56" type="curve"/>
      <point x="-47" y="-77"/>
      <point x="-19" y="-75"/>
      <point x="-16" y="-67" type="curve"/>
    </contour>
    <contour>
      <point x="-282" y="34" type="move" name="_bottom"/>
    </contour>
  </outline>
</glyph>
<glyph name="dagger" format="1">
  <advance width="500"/>
  <unicode hex="2020"/>
  <outline>
    <contour>
      <point x="220" y="483" type="line"/>
      <point x="280" y="483" type="line"/>
      <point x="438" y="413" type="line"/>
      <point x="473" y="413" type="line"/>
      <point x="473" y="576" type="line"/>
      <point x="438" y="576" type="line"/>
      <point x="280" y="526" type="line"/>
      <point x="220" y="526" type="line"/>
      <point x="63" y="576" type="line"/>
      <point x="28" y="576" type="line"/>
      <point x="28" y="413" type="line"/>
      <point x="63" y="413" type="line"/>
    </contour>
    <contour>
      <point x="346" y="710" type="line"/>
      <point x="154" y="710" type="line"/>
      <point x="154" y="670" type="line" smooth="yes"/>
      <point x="154" y="635"/>
      <point x="214" y="563"/>
      <point x="214" y="503" type="curve" smooth="yes"/>
      <point x="214" y="434"/>
      <point x="191" y="388"/>
      <point x="144" y="360" type="curve"/>
      <point x="144" y="335" type="line" smooth="yes"/>
      <point x="144" y="297"/>
      <point x="193" y="204"/>
      <point x="220" y="0" type="curve"/>
      <point x="281" y="0" type="line"/>
      <point x="308" y="204"/>
      <point x="356" y="297"/>
      <point x="356" y="335" type="curve" smooth="yes"/>
      <point x="356" y="360" type="line"/>
      <point x="309" y="388"/>
      <point x="286" y="434"/>
      <point x="286" y="503" type="curve" smooth="yes"/>
      <point x="286" y="563"/>
      <point x="346" y="635"/>
      <point x="346" y="670" type="curve" smooth="yes"/>
    </contour>
  </outline>
</glyph>
<glyph name="daggerdbl" format="1">
  <advance width="500"/>
  <unicode hex="2021"/>
  <outline>
    <contour>
      <point x="220" y="499" type="line"/>
      <point x="280" y="499" type="line"/>
      <point x="438" y="439" type="line"/>
      <point x="473" y="439" type="line"/>
      <point x="473" y="587" type="line"/>
      <point x="438" y="587" type="line"/>
      <point x="280" y="540" type="line"/>
      <point x="220" y="540" type="line"/>
      <point x="63" y="587" type="line"/>
      <point x="28" y="587" type="line"/>
      <point x="28" y="439" type="line"/>
      <point x="63" y="439" type="line"/>
    </contour>
    <contour>
      <point x="220" y="212" type="line"/>
      <point x="63" y="272" type="line"/>
      <point x="28" y="272" type="line"/>
      <point x="28" y="123" type="line"/>
      <point x="63" y="123" type="line"/>
      <point x="220" y="171" type="line"/>
      <point x="280" y="171" type="line"/>
      <point x="438" y="123" type="line"/>
      <point x="473" y="123" type="line"/>
      <point x="473" y="272" type="line"/>
      <point x="438" y="272" type="line"/>
      <point x="280" y="212" type="line"/>
    </contour>
    <contour>
      <point x="139" y="328" type="line"/>
      <point x="186" y="294"/>
      <point x="214" y="259"/>
      <point x="214" y="197" type="curve"/>
      <point x="214" y="137"/>
      <point x="154" y="70"/>
      <point x="154" y="35" type="curve" smooth="yes"/>
      <point x="154" y="0" type="line"/>
      <point x="346" y="0" type="line"/>
      <point x="346" y="35" type="line" smooth="yes"/>
      <point x="346" y="70"/>
      <point x="286" y="137"/>
      <point x="286" y="197" type="curve"/>
      <point x="286" y="259"/>
      <point x="314" y="294"/>
      <point x="361" y="328" type="curve"/>
      <point x="361" y="383" type="line"/>
      <point x="314" y="417"/>
      <point x="286" y="452"/>
      <point x="286" y="514" type="curve"/>
      <point x="286" y="573"/>
      <point x="346" y="640"/>
      <point x="346" y="675" type="curve" smooth="yes"/>
      <point x="346" y="710" type="line"/>
      <point x="154" y="710" type="line"/>
      <point x="154" y="675" type="line" smooth="yes"/>
      <point x="154" y="640"/>
      <point x="214" y="573"/>
      <point x="214" y="514" type="curve"/>
      <point x="214" y="452"/>
      <point x="186" y="417"/>
      <point x="139" y="383" type="curve"/>
    </contour>
  </outline>
</glyph>
<glyph name="bullet" format="1">
  <advance width="422"/>
  <unicode hex="2022"/>
  <outline>
    <contour>
      <point x="55" y="340" type="curve" smooth="yes"/>
      <point x="55" y="252"/>
      <point x="120" y="192"/>
      <point x="211" y="192" type="curve" smooth="yes"/>
      <point x="302" y="192"/>
      <point x="367" y="252"/>
      <point x="367" y="340" type="curve" smooth="yes"/>
      <point x="367" y="427"/>
      <point x="302" y="488"/>
      <point x="211" y="488" type="curve" smooth="yes"/>
      <point x="120" y="488"/>
      <point x="55" y="427"/>
    </contour>
  </outline>
</glyph>
<glyph name="uni20B4" format="1">
  <advance width="560"/>
  <unicode hex="20B4"/>
  <outline>
    <contour>
      <point x="18" y="469" type="line"/>
      <point x="18" y="401" type="line"/>
      <point x="543" y="401" type="line"/>
      <point x="543" y="469" type="line"/>
    </contour>
    <contour>
      <point x="18" y="326" type="line"/>
      <point x="18" y="258" type="line"/>
      <point x="543" y="258" type="line"/>
      <point x="543" y="326" type="line"/>
    </contour>
    <contour>
      <point x="292" y="720" type="curve" smooth="yes"/>
      <point x="186" y="720"/>
      <point x="109" y="681"/>
      <point x="80" y="660" type="curve"/>
      <point x="80" y="542" type="line"/>
      <point x="195" y="542" type="line"/>
      <point x="195" y="641" type="line"/>
      <point x="164" y="643"/>
      <point x="145" y="603"/>
      <point x="155" y="585" type="curve"/>
      <point x="182" y="618"/>
      <point x="219" y="641"/>
      <point x="271" y="641" type="curve" smooth="yes"/>
      <point x="333" y="641"/>
      <point x="357" y="611"/>
      <point x="357" y="569" type="curve" smooth="yes"/>
      <point x="357" y="515"/>
      <point x="317" y="475"/>
      <point x="255" y="447" type="curve"/>
      <point x="434" y="429" type="line"/>
      <point x="477" y="459"/>
      <point x="501" y="505"/>
      <point x="501" y="566" type="curve" smooth="yes"/>
      <point x="501" y="656"/>
      <point x="434" y="720"/>
    </contour>
    <contour>
      <point x="295" y="-10" type="curve" smooth="yes"/>
      <point x="404" y="-10"/>
      <point x="491" y="36"/>
      <point x="522" y="57" type="curve"/>
      <point x="522" y="195" type="line"/>
      <point x="401" y="195" type="line"/>
      <point x="401" y="76" type="line"/>
      <point x="431" y="74"/>
      <point x="452" y="126"/>
      <point x="444" y="131" type="curve"/>
      <point x="407" y="95"/>
      <point x="369" y="70"/>
      <point x="309" y="70" type="curve" smooth="yes"/>
      <point x="248" y="70"/>
      <point x="211" y="96"/>
      <point x="211" y="157" type="curve" smooth="yes"/>
      <point x="211" y="209"/>
      <point x="248" y="268"/>
      <point x="326" y="291" type="curve"/>
      <point x="127" y="293" type="line"/>
      <point x="89" y="272"/>
      <point x="65" y="225"/>
      <point x="65" y="166" type="curve" smooth="yes"/>
      <point x="65" y="53"/>
      <point x="148" y="-10"/>
    </contour>
  </outline>
</glyph>
<glyph name="uni20B8" format="1">
  <advance width="560"/>
  <unicode hex="20B8"/>
  <outline>
    <contour>
      <point x="201" y="101" type="line" smooth="yes"/>
      <point x="201" y="72"/>
      <point x="175" y="65"/>
      <point x="138" y="65" type="curve" smooth="yes"/>
      <point x="123" y="65" type="line"/>
      <point x="123" y="0" type="line"/>
      <point x="438" y="0" type="line"/>
      <point x="438" y="65" type="line"/>
      <point x="423" y="65" type="line" smooth="yes"/>
      <point x="386" y="65"/>
      <point x="360" y="72"/>
      <point x="360" y="101" type="curve" smooth="yes"/>
      <point x="360" y="482" type="line"/>
      <point x="378" y="482" type="line" smooth="yes"/>
      <point x="426" y="482"/>
      <point x="459" y="475"/>
      <point x="462" y="437" type="curve" smooth="yes"/>
      <point x="469" y="337" type="line"/>
      <point x="544" y="337" type="line"/>
      <point x="544" y="555" type="line"/>
      <point x="16" y="555" type="line"/>
      <point x="16" y="337" type="line"/>
      <point x="91" y="337" type="line"/>
      <point x="99" y="437" type="line" smooth="yes"/>
      <point x="101" y="475"/>
      <point x="134" y="482"/>
      <point x="183" y="482" type="curve" smooth="yes"/>
      <point x="201" y="482" type="line"/>
    </contour>
    <contour>
      <point x="16" y="710" type="line"/>
      <point x="16" y="638" type="line"/>
      <point x="544" y="638" type="line"/>
      <point x="544" y="710" type="line"/>
    </contour>
  </outline>
</glyph>
<glyph name="partialdiff" format="1">
  <advance width="583"/>
  <unicode hex="2202"/>
  <outline>
    <contour>
      <point x="246" y="-12" type="curve" smooth="yes"/>
      <point x="428" y="-12"/>
      <point x="551" y="182"/>
      <point x="551" y="434" type="curve" smooth="yes"/>
      <point x="551" y="647"/>
      <point x="445" y="746"/>
      <point x="301" y="746" type="curve" smooth="yes"/>
      <point x="243" y="746"/>
      <point x="185" y="731"/>
      <point x="135" y="702" type="curve"/>
      <point x="164" y="638" type="line"/>
      <point x="201" y="657"/>
      <point x="237" y="671"/>
      <point x="275" y="671" type="curve" smooth="yes"/>
      <point x="350" y="671"/>
      <point x="393" y="619"/>
      <point x="393" y="476" type="curve" smooth="yes"/>
      <point x="393" y="274"/>
      <point x="343" y="60"/>
      <point x="258" y="60" type="curve" smooth="yes"/>
      <point x="213" y="60"/>
      <point x="193" y="104"/>
      <point x="193" y="200" type="curve" smooth="yes"/>
      <point x="193" y="340"/>
      <point x="246" y="446"/>
      <point x="328" y="446" type="curve" smooth="yes"/>
      <point x="374" y="446"/>
      <point x="420" y="416"/>
      <point x="437" y="369" type="curve"/>
      <point x="447" y="383"/>
      <point x="433" y="417"/>
      <point x="439" y="474" type="curve"/>
      <point x="422" y="489"/>
      <point x="395" y="518"/>
      <point x="318" y="518" type="curve" smooth="yes"/>
      <point x="165" y="518"/>
      <point x="33" y="371"/>
      <point x="33" y="208" type="curve" smooth="yes"/>
      <point x="33" y="83"/>
      <point x="99" y="-12"/>
    </contour>
  </outline>
</glyph>
<glyph name="emptyset" format="1">
  <advance width="697"/>
  <unicode hex="2205"/>
  <outline>
    <contour>
      <point x="67" y="270" type="curve" smooth="yes"/>
      <point x="67" y="110"/>
      <point x="194" y="-10"/>
      <point x="349" y="-10" type="curve" smooth="yes"/>
      <point x="504" y="-10"/>
      <point x="631" y="110"/>
      <point x="631" y="270" type="curve" smooth="yes"/>
      <point x="631" y="430"/>
      <point x="504" y="550"/>
      <point x="349" y="550" type="curve" smooth="yes"/>
      <point x="194" y="550"/>
      <point x="67" y="430"/>
    </contour>
    <contour>
      <point x="617" y="589" type="line"/>
      <point x="37" y="-6" type="line"/>
      <point x="81" y="-49" type="line"/>
      <point x="661" y="546" type="line"/>
    </contour>
    <contour>
      <point x="349" y="55" type="curve" smooth="yes"/>
      <point x="230" y="55"/>
      <point x="136" y="144"/>
      <point x="136" y="270" type="curve" smooth="yes"/>
      <point x="136" y="395"/>
      <point x="232" y="486"/>
      <point x="349" y="486" type="curve" smooth="yes"/>
      <point x="470" y="486"/>
      <point x="561" y="397"/>
      <point x="561" y="270" type="curve" smooth="yes"/>
      <point x="561" y="145"/>
      <point x="468" y="55"/>
    </contour>
  </outline>
</glyph>
<glyph name="product" format="1">
  <advance width="763"/>
  <unicode hex="220F"/>
  <outline>
    <contour>
      <point x="34" y="710" type="line"/>
      <point x="34" y="646" type="line"/>
      <point x="44" y="646" type="line" smooth="yes"/>
      <point x="81" y="646"/>
      <point x="108" y="639"/>
      <point x="108" y="610" type="curve" smooth="yes"/>
      <point x="108" y="-123" type="line" smooth="yes"/>
      <point x="108" y="-152"/>
      <point x="81" y="-159"/>
      <point x="44" y="-159" type="curve" smooth="yes"/>
      <point x="34" y="-159" type="line"/>
      <point x="34" y="-223" type="line"/>
      <point x="339" y="-223" type="line"/>
      <point x="339" y="-159" type="line"/>
      <point x="330" y="-159" type="line" smooth="yes"/>
      <point x="305" y="-159"/>
      <point x="272" y="-156"/>
      <point x="272" y="-149" type="curve" smooth="yes"/>
      <point x="272" y="636" type="line" smooth="yes"/>
      <point x="272" y="643"/>
      <point x="309" y="646"/>
      <point x="338" y="646" type="curve" smooth="yes"/>
      <point x="425" y="646" type="line" smooth="yes"/>
      <point x="454" y="646"/>
      <point x="491" y="643"/>
      <point x="491" y="636" type="curve" smooth="yes"/>
      <point x="491" y="-149" type="line" smooth="yes"/>
      <point x="491" y="-156"/>
      <point x="459" y="-159"/>
      <point x="433" y="-159" type="curve" smooth="yes"/>
      <point x="424" y="-159" type="line"/>
      <point x="424" y="-223" type="line"/>
      <point x="729" y="-223" type="line"/>
      <point x="729" y="-159" type="line"/>
      <point x="719" y="-159" type="line" smooth="yes"/>
      <point x="682" y="-159"/>
      <point x="655" y="-152"/>
      <point x="655" y="-123" type="curve" smooth="yes"/>
      <point x="655" y="610" type="line" smooth="yes"/>
      <point x="655" y="639"/>
      <point x="682" y="646"/>
      <point x="719" y="646" type="curve" smooth="yes"/>
      <point x="729" y="646" type="line"/>
      <point x="729" y="710" type="line"/>
    </contour>
  </outline>
</glyph>
<glyph name="notequal" format="1">
  <advance width="560"/>
  <unicode hex="2260"/>
  <outline>
    <contour>
      <point x="377" y="609" type="line"/>
      <point x="59" y="60" type="line"/>
      <point x="164" y="60" type="line"/>
      <point x="482" y="609" type="line"/>
    </contour>
    <component base="equal" xOffset="-10" yOffset="1"/>
  </outline>
</glyph>
<glyph name="hook" format="1">
  <advance width="510"/>
  <unicode hex="2440"/>
  <outline>
    <contour>
      <point x="95" y="690" type="line"/>
      <point x="99" y="741"/>
      <point x="139" y="787"/>
      <point x="232" y="787" type="curve" smooth="yes"/>
      <point x="318" y="787"/>
      <point x="364" y="752"/>
      <point x="364" y="695" type="curve" smooth="yes"/>
      <point x="364" y="628"/>
      <point x="304" y="602"/>
      <point x="220" y="595" type="curve"/>
      <point x="259" y="628" type="line"/>
      <point x="259" y="562" type="line"/>
      <point x="184" y="562" type="line"/>
      <point x="184" y="638" type="line"/>
      <point x="239" y="642"/>
      <point x="262" y="659"/>
      <point x="262" y="689" type="curve" smooth="yes"/>
      <point x="262" y="710"/>
      <point x="250" y="724"/>
      <point x="226" y="724" type="curve" smooth="yes"/>
      <point x="200" y="724"/>
      <point x="188" y="710"/>
      <point x="185" y="690" type="curve"/>
    </contour>
    <contour>
      <point x="234" y="517" type="move" name="_top"/>
    </contour>
  </outline>
</glyph>
<glyph name="baht.proportional" format="1">
  <advance width="702"/>
  <outline>
    <contour>
      <point x="324" y="790" type="line"/>
      <point x="324" y="676" type="line"/>
      <point x="334" y="660" type="line"/>
      <point x="334" y="46" type="line"/>
      <point x="324" y="36" type="line"/>
      <point x="324" y="-115" type="line"/>
      <point x="409" y="-115" type="line"/>
      <point x="409" y="38" type="line"/>
      <point x="398" y="50" type="line"/>
      <point x="398" y="662" type="line"/>
      <point x="409" y="673" type="line"/>
      <point x="409" y="790" type="line"/>
    </contour>
    <contour>
      <point x="395" y="705" type="curve"/>
      <point x="28" y="705" type="line"/>
      <point x="28" y="641" type="line"/>
      <point x="38" y="641" type="line" smooth="yes"/>
      <point x="75" y="641"/>
      <point x="101" y="634"/>
      <point x="101" y="605" type="curve" smooth="yes"/>
      <point x="101" y="106" type="line" smooth="yes"/>
      <point x="101" y="77"/>
      <point x="75" y="70"/>
      <point x="38" y="70" type="curve" smooth="yes"/>
      <point x="28" y="70" type="line"/>
      <point x="28" y="5" type="line"/>
      <point x="397" y="5" type="line" smooth="yes"/>
      <point x="578" y="5"/>
      <point x="673" y="81"/>
      <point x="673" y="206" type="curve" smooth="yes"/>
      <point x="673" y="318"/>
      <point x="574" y="379"/>
      <point x="420" y="383" type="curve"/>
      <point x="419" y="368" type="line"/>
      <point x="561" y="372"/>
      <point x="650" y="428"/>
      <point x="650" y="536" type="curve" smooth="yes"/>
      <point x="650" y="641"/>
      <point x="564" y="705"/>
    </contour>
    <contour>
      <point x="384" y="404" type="curve"/>
      <point x="247" y="404" type="line"/>
      <point x="247" y="636" type="line"/>
      <point x="378" y="636" type="line"/>
      <point x="463" y="636"/>
      <point x="501" y="597"/>
      <point x="501" y="525" type="curve" smooth="yes"/>
      <point x="501" y="452"/>
      <point x="471" y="404"/>
    </contour>
    <contour>
      <point x="383" y="338" type="line"/>
      <point x="485" y="338"/>
      <point x="524" y="288"/>
      <point x="524" y="212" type="curve" smooth="yes"/>
      <point x="524" y="121"/>
      <point x="477" y="74"/>
      <point x="377" y="74" type="curve" smooth="yes"/>
      <point x="247" y="74" type="line"/>
      <point x="247" y="338" type="line"/>
    </contour>
  </outline>
</glyph>
<glyph name="breve.uc" format="1">
  <advance width="500"/>
  <outline>
    <contour>
      <point x="250" y="752" type="curve" smooth="yes"/>
      <point x="161" y="752"/>
      <point x="97" y="803"/>
      <point x="91" y="908" type="curve"/>
      <point x="176" y="908" type="line"/>
      <point x="183" y="864"/>
      <point x="209" y="849"/>
      <point x="253" y="849" type="curve" smooth="yes"/>
      <point x="298" y="849"/>
      <point x="322" y="864"/>
      <point x="329" y="908" type="curve"/>
      <point x="409" y="908" type="line"/>
      <point x="403" y="803"/>
      <point x="339" y="752"/>
    </contour>
    <contour>
      <point x="250" y="694" type="move" name="_top"/>
    </contour>
  </outline>
</glyph>
<glyph name="breve_tilde" format="1">
  <advance width="505"/>
  <outline>
    <contour>
      <point x="318" y="764" type="curve" smooth="yes"/>
      <point x="381" y="764"/>
      <point x="422" y="813"/>
      <point x="439" y="889" type="curve"/>
      <point x="371" y="914" type="line"/>
      <point x="361" y="880"/>
      <point x="349" y="860"/>
      <point x="323" y="860" type="curve" smooth="yes"/>
      <point x="283" y="860"/>
      <point x="254" y="911"/>
      <point x="185" y="911" type="curve" smooth="yes"/>
      <point x="115" y="911"/>
      <point x="83" y="866"/>
      <point x="67" y="786" type="curve"/>
      <point x="136" y="763" type="line"/>
      <point x="143" y="799"/>
      <point x="155" y="817"/>
      <point x="181" y="817" type="curve" smooth="yes"/>
      <point x="216" y="817"/>
      <point x="242" y="764"/>
    </contour>
    <contour>
      <point x="253" y="568" type="curve" smooth="yes"/>
      <point x="161" y="568"/>
      <point x="97" y="623"/>
      <point x="96" y="723" type="curve"/>
      <point x="179" y="723" type="line"/>
      <point x="185" y="678"/>
      <point x="213" y="664"/>
      <point x="256" y="664" type="curve" smooth="yes"/>
      <point x="298" y="664"/>
      <point x="325" y="678"/>
      <point x="331" y="723" type="curve"/>
      <point x="410" y="723" type="line"/>
      <point x="409" y="623"/>
      <point x="344" y="568"/>
    </contour>
    <contour>
      <point x="255" y="524" type="move" name="_top"/>
    </contour>
  </outline>
</glyph>
<glyph name="brevebelowcomb" format="1">
  <advance width="0"/>
  <outline>
    <component base="brevebelow" xOffset="-555"/>
    <contour>
      <point x="-303" y="-46" type="move" name="_bottom"/>
    </contour>
  </outline>
</glyph>
<glyph name="cedi.proportional" format="1">
  <advance width="715"/>
  <outline>
    <contour>
      <point x="404" y="710" type="curve" smooth="yes"/>
      <point x="188" y="710"/>
      <point x="44" y="566"/>
      <point x="44" y="355" type="curve" smooth="yes"/>
      <point x="44" y="144"/>
      <point x="189" y="0"/>
      <point x="391" y="0" type="curve" smooth="yes"/>
      <point x="553" y="0"/>
      <point x="647" y="96"/>
      <point x="677" y="233" type="curve"/>
      <point x="604" y="265" type="line"/>
      <point x="580" y="155"/>
      <point x="514" y="79"/>
      <point x="413" y="79" type="curve" smooth="yes"/>
      <point x="281" y="79"/>
      <point x="213" y="183"/>
      <point x="213" y="355" type="curve" smooth="yes"/>
      <point x="213" y="524"/>
      <point x="272" y="634"/>
      <point x="412" y="634" type="curve" smooth="yes"/>
      <point x="503" y="634"/>
      <point x="552" y="593"/>
      <point x="575" y="545" type="curve"/>
      <point x="617" y="559"/>
      <point x="566" y="618"/>
      <point x="527" y="626" type="curve"/>
      <point x="527" y="493" type="line"/>
      <point x="661" y="493" type="line"/>
      <point x="661" y="630" type="line"/>
      <point x="634" y="654"/>
      <point x="551" y="710"/>
    </contour>
    <contour>
      <point x="354" y="790" type="line"/>
      <point x="354" y="665" type="line"/>
      <point x="360" y="650" type="line"/>
      <point x="360" y="52" type="line"/>
      <point x="354" y="37" type="line"/>
      <point x="354" y="-120" type="line"/>
      <point x="434" y="-120" type="line"/>
      <point x="434" y="37" type="line"/>
      <point x="427" y="56" type="line"/>
      <point x="427" y="657" type="line"/>
      <point x="434" y="670" type="line"/>
      <point x="434" y="790" type="line"/>
    </contour>
  </outline>
</glyph>
<glyph name="cent.altprop" format="1">
  <advance width="585"/>
  <outline>
    <contour>
      <point x="349" y="65" type="curve" smooth="yes"/>
      <point x="262" y="65"/>
      <point x="205" y="136"/>
      <point x="205" y="251" type="curve" smooth="yes"/>
      <point x="205" y="371"/>
      <point x="254" y="445"/>
      <point x="336" y="445" type="curve" smooth="yes"/>
      <point x="387" y="445"/>
      <point x="421" y="420"/>
      <point x="439" y="396" type="curve"/>
      <point x="456" y="410"/>
      <point x="449" y="451"/>
      <point x="415" y="451" type="curve"/>
      <point x="415" y="327" type="line"/>
      <point x="544" y="327" type="line"/>
      <point x="544" y="458" type="line"/>
      <point x="520" y="478"/>
      <point x="447" y="521"/>
      <point x="328" y="521" type="curve" smooth="yes"/>
      <point x="150" y="521"/>
      <point x="34" y="415"/>
      <point x="34" y="251" type="curve" smooth="yes"/>
      <point x="34" y="89"/>
      <point x="160" y="-13"/>
      <point x="324" y="-13" type="curve" smooth="yes"/>
      <point x="445" y="-13"/>
      <point x="511" y="46"/>
      <point x="553" y="124" type="curve"/>
      <point x="493" y="168" type="line"/>
      <point x="465" y="123"/>
      <point x="425" y="65"/>
    </contour>
    <contour>
      <point x="367" y="486" type="line"/>
      <point x="367" y="623" type="line"/>
      <point x="282" y="623" type="line"/>
      <point x="282" y="477" type="line"/>
    </contour>
    <contour>
      <point x="282" y="26" type="line"/>
      <point x="282" y="-126" type="line"/>
      <point x="367" y="-126" type="line"/>
      <point x="367" y="24" type="line"/>
    </contour>
  </outline>
</glyph>
<glyph name="dieresis_acute" format="1">
  <advance width="590"/>
  <outline>
    <component base="dieresis" xOffset="45"/>
    <component base="acute" xOffset="75" yOffset="199"/>
    <contour>
      <point x="293" y="526" type="move" name="_top"/>
    </contour>
  </outline>
</glyph>
<glyph name="dollar.alt" format="1">
  <advance width="560"/>
  <outline>
    <contour>
      <point x="275" y="92" type="curve" smooth="yes"/>
      <point x="207" y="92"/>
      <point x="150" y="117"/>
      <point x="117" y="163" type="curve"/>
      <point x="109" y="150"/>
      <point x="129" y="103"/>
      <point x="162" y="102" type="curve"/>
      <point x="162" y="212" type="line"/>
      <point x="30" y="212" type="line"/>
      <point x="30" y="86" type="line"/>
      <point x="72" y="51"/>
      <point x="165" y="12"/>
      <point x="280" y="12" type="curve" smooth="yes"/>
      <point x="433" y="12"/>
      <point x="532" y="92"/>
      <point x="532" y="227" type="curve" smooth="yes"/>
      <point x="532" y="353"/>
      <point x="438" y="403"/>
      <point x="326" y="438" type="curve" smooth="yes"/>
      <point x="254" y="460"/>
      <point x="182" y="478"/>
      <point x="182" y="542" type="curve" smooth="yes"/>
      <point x="182" y="592"/>
      <point x="220" y="621"/>
      <point x="286" y="621" type="curve" smooth="yes"/>
      <point x="344" y="621"/>
      <point x="387" y="594"/>
      <point x="418" y="559" type="curve"/>
      <point x="425" y="575"/>
      <point x="405" y="617"/>
      <point x="375" y="616" type="curve"/>
      <point x="375" y="521" type="line"/>
      <point x="501" y="521" type="line"/>
      <point x="501" y="639" type="line"/>
      <point x="472" y="666"/>
      <point x="393" y="698"/>
      <point x="291" y="698" type="curve" smooth="yes"/>
      <point x="140" y="698"/>
      <point x="42" y="628"/>
      <point x="42" y="505" type="curve" smooth="yes"/>
      <point x="42" y="377"/>
      <point x="132" y="330"/>
      <point x="227" y="298" type="curve" smooth="yes"/>
      <point x="311" y="270"/>
      <point x="387" y="259"/>
      <point x="387" y="183" type="curve" smooth="yes"/>
      <point x="387" y="121"/>
      <point x="345" y="92"/>
    </contour>
    <contour>
      <point x="243" y="790" type="line"/>
      <point x="243" y="667" type="line"/>
      <point x="323" y="667" type="line"/>
      <point x="323" y="790" type="line"/>
    </contour>
    <contour>
      <point x="243" y="53" type="line"/>
      <point x="243" y="-120" type="line"/>
      <point x="323" y="-120" type="line"/>
      <point x="323" y="53" type="line"/>
    </contour>
  </outline>
</glyph>
<glyph name="f_b" format="1">
  <advance width="1045"/>
  <outline>
    <contour>
      <point x="837" y="260" type="curve" smooth="yes"/>
      <point x="837" y="147"/>
      <point x="802" y="74"/>
      <point x="729" y="74" type="curve" smooth="yes"/>
      <point x="667" y="74"/>
      <point x="628" y="122"/>
      <point x="595" y="201" type="curve"/>
      <point x="548" y="161" type="line"/>
      <point x="602" y="40"/>
      <point x="661" y="-13"/>
      <point x="770" y="-13" type="curve" smooth="yes"/>
      <point x="912" y="-13"/>
      <point x="1009" y="100"/>
      <point x="1009" y="260" type="curve" smooth="yes"/>
      <point x="1009" y="417"/>
      <point x="918" y="521"/>
      <point x="778" y="521" type="curve" smooth="yes"/>
      <point x="675" y="521"/>
      <point x="624" y="462"/>
      <point x="561" y="342" type="curve"/>
      <point x="596" y="299" type="line"/>
      <point x="633" y="385"/>
      <point x="674" y="435"/>
      <point x="735" y="435" type="curve" smooth="yes"/>
      <point x="803" y="435"/>
      <point x="837" y="371"/>
    </contour>
    <contour>
      <point x="452" y="686" type="line"/>
      <point x="452" y="-2" type="line"/>
      <point x="556" y="-2" type="line"/>
      <point x="602" y="106" type="line"/>
      <point x="619" y="115" type="line"/>
      <point x="619" y="733" type="line"/>
      <point x="398" y="733" type="line"/>
    </contour>
    <contour>
      <point x="19" y="511" type="line"/>
      <point x="19" y="440" type="line"/>
      <point x="378" y="440" type="line"/>
      <point x="378" y="511" type="line"/>
    </contour>
    <contour>
      <point x="273" y="573" type="line" smooth="yes"/>
      <point x="273" y="652"/>
      <point x="308" y="675"/>
      <point x="364" y="675" type="curve" smooth="yes"/>
      <point x="424" y="675"/>
      <point x="463" y="648"/>
      <point x="489" y="594" type="curve"/>
      <point x="543" y="697" type="line"/>
      <point x="499" y="726"/>
      <point x="438" y="750"/>
      <point x="352" y="750" type="curve" smooth="yes"/>
      <point x="223" y="750"/>
      <point x="107" y="702"/>
      <point x="107" y="555" type="curve" smooth="yes"/>
      <point x="107" y="94" type="line" smooth="yes"/>
      <point x="107" y="69"/>
      <point x="83" y="61"/>
      <point x="41" y="61" type="curve" smooth="yes"/>
      <point x="30" y="61" type="line"/>
      <point x="30" y="0" type="line"/>
      <point x="346" y="0" type="line"/>
      <point x="346" y="61" type="line"/>
      <point x="336" y="61" type="line" smooth="yes"/>
      <point x="301" y="61"/>
      <point x="273" y="63"/>
      <point x="273" y="70" type="curve" smooth="yes"/>
    </contour>
  </outline>
</glyph>
<glyph name="f_f_k" format="1">
  <advance width="1392"/>
  <outline>
    <contour>
      <point x="1375" y="0" type="line"/>
      <point x="1375" y="61" type="line"/>
      <point x="1373" y="61" type="line"/>
      <point x="1341" y="61"/>
      <point x="1314" y="68"/>
      <point x="1293" y="95" type="curve" smooth="yes"/>
      <point x="1110" y="342" type="line"/>
      <point x="1080" y="268" type="line"/>
      <point x="1233" y="407" type="line" smooth="yes"/>
      <point x="1263" y="434"/>
      <point x="1296" y="451"/>
      <point x="1336" y="451" type="curve"/>
      <point x="1338" y="451" type="line"/>
      <point x="1338" y="511" type="line"/>
      <point x="1081" y="511" type="line"/>
      <point x="1081" y="451" type="line"/>
      <point x="1085" y="451" type="line"/>
      <point x="1111" y="451"/>
      <point x="1159" y="448"/>
      <point x="1159" y="433" type="curve"/>
      <point x="988" y="277" type="line"/>
      <point x="988" y="258" type="line"/>
      <point x="1123" y="70" type="line"/>
      <point x="1123" y="63"/>
      <point x="1093" y="61"/>
      <point x="1074" y="61" type="curve"/>
      <point x="1071" y="61" type="line"/>
      <point x="1071" y="0" type="line"/>
    </contour>
    <contour>
      <point x="19" y="511" type="line"/>
      <point x="19" y="440" type="line"/>
      <point x="403" y="440" type="line"/>
      <point x="403" y="511" type="line"/>
    </contour>
    <contour>
      <point x="365" y="511" type="line"/>
      <point x="365" y="440" type="line"/>
      <point x="724" y="440" type="line"/>
      <point x="724" y="511" type="line"/>
    </contour>
    <contour>
      <point x="739" y="0" type="line"/>
      <point x="1017" y="0" type="line"/>
      <point x="1017" y="61" type="line"/>
      <point x="1014" y="61" type="line" smooth="yes"/>
      <point x="996" y="61"/>
      <point x="965" y="63"/>
      <point x="965" y="70" type="curve"/>
      <point x="965" y="733" type="line"/>
      <point x="748" y="733" type="line"/>
      <point x="798" y="686" type="line"/>
      <point x="798" y="70" type="line"/>
      <point x="798" y="63"/>
      <point x="767" y="61"/>
      <point x="747" y="61" type="curve" smooth="yes"/>
      <point x="739" y="61" type="line"/>
    </contour>
    <contour>
      <point x="273" y="70" type="curve"/>
      <point x="273" y="568" type="line" smooth="yes"/>
      <point x="273" y="644"/>
      <point x="302" y="663"/>
      <point x="343" y="663" type="curve" smooth="yes"/>
      <point x="365" y="663"/>
      <point x="387" y="655"/>
      <point x="398" y="651" type="curve"/>
      <point x="398" y="726" type="line"/>
      <point x="383" y="732"/>
      <point x="350" y="738"/>
      <point x="315" y="738" type="curve" smooth="yes"/>
      <point x="206" y="738"/>
      <point x="107" y="690"/>
      <point x="107" y="543" type="curve" smooth="yes"/>
      <point x="107" y="94" type="line"/>
      <point x="107" y="69"/>
      <point x="83" y="61"/>
      <point x="41" y="61" type="curve" smooth="yes"/>
      <point x="30" y="61" type="line"/>
      <point x="30" y="0" type="line"/>
      <point x="333" y="0" type="line"/>
      <point x="333" y="61" type="line"/>
      <point x="330" y="61" type="line" smooth="yes"/>
      <point x="296" y="61"/>
      <point x="273" y="63"/>
    </contour>
    <contour>
      <point x="619" y="70" type="curve"/>
      <point x="619" y="573" type="line" smooth="yes"/>
      <point x="619" y="652"/>
      <point x="653" y="675"/>
      <point x="710" y="675" type="curve" smooth="yes"/>
      <point x="764" y="675"/>
      <point x="803" y="653"/>
      <point x="834" y="594" type="curve"/>
      <point x="888" y="697" type="line"/>
      <point x="845" y="726"/>
      <point x="784" y="750"/>
      <point x="698" y="750" type="curve" smooth="yes"/>
      <point x="569" y="750"/>
      <point x="452" y="702"/>
      <point x="452" y="555" type="curve"/>
      <point x="452" y="70" type="line"/>
      <point x="452" y="63"/>
      <point x="430" y="61"/>
      <point x="394" y="61" type="curve" smooth="yes"/>
      <point x="387" y="61" type="line"/>
      <point x="387" y="0" type="line"/>
      <point x="685" y="0" type="line"/>
      <point x="685" y="61" type="line"/>
      <point x="677" y="61" type="line" smooth="yes"/>
      <point x="645" y="61"/>
      <point x="619" y="63"/>
    </contour>
  </outline>
</glyph>
<glyph name="f_k" format="1">
  <advance width="1047"/>
  <outline>
    <contour>
      <point x="1029" y="0" type="line"/>
      <point x="1029" y="61" type="line"/>
      <point x="1027" y="61" type="line"/>
      <point x="996" y="61"/>
      <point x="969" y="68"/>
      <point x="947" y="95" type="curve" smooth="yes"/>
      <point x="764" y="342" type="line"/>
      <point x="735" y="268" type="line"/>
      <point x="888" y="407" type="line" smooth="yes"/>
      <point x="917" y="434"/>
      <point x="951" y="451"/>
      <point x="991" y="451" type="curve"/>
      <point x="993" y="451" type="line"/>
      <point x="993" y="511" type="line"/>
      <point x="735" y="511" type="line"/>
      <point x="735" y="451" type="line"/>
      <point x="739" y="451" type="line"/>
      <point x="766" y="451"/>
      <point x="813" y="448"/>
      <point x="813" y="433" type="curve"/>
      <point x="642" y="277" type="line"/>
      <point x="642" y="258" type="line"/>
      <point x="778" y="70" type="line"/>
      <point x="778" y="63"/>
      <point x="747" y="61"/>
      <point x="728" y="61" type="curve"/>
      <point x="725" y="61" type="line"/>
      <point x="725" y="0" type="line"/>
    </contour>
    <contour>
      <point x="19" y="511" type="line"/>
      <point x="19" y="440" type="line"/>
      <point x="378" y="440" type="line"/>
      <point x="378" y="511" type="line"/>
    </contour>
    <contour>
      <point x="672" y="0" type="line"/>
      <point x="672" y="61" type="line"/>
      <point x="669" y="61" type="line" smooth="yes"/>
      <point x="650" y="61"/>
      <point x="619" y="63"/>
      <point x="619" y="70" type="curve"/>
      <point x="619" y="733" type="line"/>
      <point x="408" y="733" type="line"/>
      <point x="452" y="686" type="line"/>
      <point x="452" y="70" type="line"/>
      <point x="452" y="63"/>
      <point x="421" y="61"/>
      <point x="402" y="61" type="curve" smooth="yes"/>
      <point x="395" y="61" type="line"/>
      <point x="395" y="0" type="line"/>
    </contour>
    <contour>
      <point x="273" y="70" type="curve" smooth="yes"/>
      <point x="273" y="573" type="line" smooth="yes"/>
      <point x="273" y="652"/>
      <point x="308" y="675"/>
      <point x="364" y="675" type="curve" smooth="yes"/>
      <point x="419" y="675"/>
      <point x="458" y="653"/>
      <point x="489" y="594" type="curve"/>
      <point x="543" y="697" type="line"/>
      <point x="499" y="726"/>
      <point x="438" y="750"/>
      <point x="352" y="750" type="curve" smooth="yes"/>
      <point x="223" y="750"/>
      <point x="107" y="702"/>
      <point x="107" y="555" type="curve" smooth="yes"/>
      <point x="107" y="94" type="line"/>
      <point x="107" y="69"/>
      <point x="83" y="61"/>
      <point x="41" y="61" type="curve" smooth="yes"/>
      <point x="30" y="61" type="line"/>
      <point x="30" y="0" type="line"/>
      <point x="341" y="0" type="line"/>
      <point x="341" y="61" type="line"/>
      <point x="333" y="61" type="line" smooth="yes"/>
      <point x="298" y="61"/>
      <point x="273" y="63"/>
    </contour>
  </outline>
</glyph>
<glyph name="florin.proportional" format="1">
  <advance width="522"/>
  <outline>
    <contour>
      <point x="86" y="508" type="line"/>
      <point x="79" y="434" type="line"/>
      <point x="473" y="434" type="line"/>
      <point x="480" y="508" type="line"/>
    </contour>
    <contour>
      <point x="268" y="70" type="curve" smooth="yes"/>
      <point x="339" y="569" type="line" smooth="yes"/>
      <point x="350" y="644"/>
      <point x="386" y="667"/>
      <point x="438" y="667" type="curve" smooth="yes"/>
      <point x="470" y="667"/>
      <point x="495" y="660"/>
      <point x="519" y="651" type="curve"/>
      <point x="525" y="734" type="line"/>
      <point x="500" y="746"/>
      <point x="460" y="754"/>
      <point x="412" y="754" type="curve" smooth="yes"/>
      <point x="284" y="754"/>
      <point x="205" y="694"/>
      <point x="187" y="565" type="curve" smooth="yes"/>
      <point x="115" y="56" type="line" smooth="yes"/>
      <point x="89" y="-128"/>
      <point x="49" y="-150"/>
      <point x="3" y="-150" type="curve" smooth="yes"/>
      <point x="-24" y="-150"/>
      <point x="-49" y="-140"/>
      <point x="-65" y="-134" type="curve"/>
      <point x="-70" y="-219" type="line"/>
      <point x="-55" y="-227"/>
      <point x="-23" y="-236"/>
      <point x="16" y="-236" type="curve" smooth="yes"/>
      <point x="139" y="-236"/>
      <point x="236" y="-160"/>
    </contour>
  </outline>
</glyph>
<glyph name="four.den" format="1">
  <advance width="357"/>
  <outline>
    <contour>
      <point x="15" y="76" type="line"/>
      <point x="344" y="76" type="line"/>
      <point x="344" y="154" type="line"/>
      <point x="56" y="154" type="line"/>
      <point x="44" y="112" type="line"/>
      <point x="197" y="316" type="line"/>
      <point x="208" y="360" type="line"/>
      <point x="168" y="360" type="line"/>
      <point x="15" y="156" type="line"/>
    </contour>
    <contour>
      <point x="295" y="0" type="line"/>
      <point x="295" y="360" type="line"/>
      <point x="191" y="360" type="line"/>
      <point x="183" y="326" type="line"/>
      <point x="183" y="0" type="line"/>
    </contour>
  </outline>
</glyph>
<glyph name="four.lin" format="1">
  <advance width="560"/>
  <outline>
    <contour>
      <point x="23" y="188" type="line"/>
      <point x="547" y="188" type="line"/>
      <point x="547" y="299" type="line"/>
      <point x="82" y="299" type="line"/>
      <point x="69" y="237" type="line"/>
      <point x="323" y="645" type="line"/>
      <point x="344" y="710" type="line"/>
      <point x="277" y="710" type="line"/>
      <point x="23" y="303" type="line"/>
    </contour>
    <contour>
      <point x="307" y="710" type="line"/>
      <point x="299" y="640" type="line"/>
      <point x="299" y="101" type="line" smooth="yes"/>
      <point x="299" y="72"/>
      <point x="272" y="65"/>
      <point x="229" y="65" type="curve" smooth="yes"/>
      <point x="211" y="65" type="line"/>
      <point x="211" y="0" type="line"/>
      <point x="538" y="0" type="line"/>
      <point x="538" y="65" type="line"/>
      <point x="523" y="65" type="line" smooth="yes"/>
      <point x="486" y="65"/>
      <point x="459" y="72"/>
      <point x="459" y="101" type="curve" smooth="yes"/>
      <point x="459" y="710" type="line"/>
    </contour>
  </outline>
</glyph>
<glyph name="franc.proportional" format="1">
  <advance width="615"/>
  <outline>
    <contour>
      <point x="272" y="414" type="line"/>
      <point x="272" y="349" type="line"/>
      <point x="497" y="338" type="line"/>
      <point x="497" y="425" type="line"/>
    </contour>
    <contour>
      <point x="300" y="636" type="line"/>
      <point x="387" y="636" type="line" smooth="yes"/>
      <point x="455" y="636"/>
      <point x="490" y="629"/>
      <point x="493" y="593" type="curve" smooth="yes"/>
      <point x="501" y="513" type="line"/>
      <point x="582" y="513" type="line"/>
      <point x="582" y="710" type="line"/>
      <point x="54" y="710" type="line"/>
      <point x="54" y="646" type="line"/>
      <point x="65" y="646" type="line" smooth="yes"/>
      <point x="102" y="646"/>
      <point x="129" y="639"/>
      <point x="129" y="610" type="curve" smooth="yes"/>
      <point x="129" y="101" type="line" smooth="yes"/>
      <point x="129" y="72"/>
      <point x="102" y="65"/>
      <point x="65" y="65" type="curve" smooth="yes"/>
      <point x="54" y="65" type="line"/>
      <point x="54" y="0" type="line"/>
      <point x="393" y="0" type="line"/>
      <point x="393" y="65" type="line"/>
      <point x="376" y="65" type="line" smooth="yes"/>
      <point x="342" y="65"/>
      <point x="300" y="66"/>
      <point x="300" y="101" type="curve" smooth="yes"/>
    </contour>
    <contour>
      <point x="54" y="244" type="line"/>
      <point x="54" y="176" type="line"/>
      <point x="426" y="176" type="line"/>
      <point x="426" y="244" type="line"/>
    </contour>
  </outline>
</glyph>
<glyph name="horncomb" format="1">
  <outline>
    <contour>
      <point x="-427" y="476" type="curve"/>
      <point x="-222" y="462"/>
      <point x="-147" y="515"/>
      <point x="-147" y="680" type="curve"/>
      <point x="-267" y="680" type="line"/>
      <point x="-268" y="555"/>
      <point x="-311" y="521"/>
      <point x="-467" y="521" type="curve"/>
      <point x="-460" y="509"/>
      <point x="-437" y="482"/>
    </contour>
    <contour>
      <point x="-305" y="444" type="move" name="_top"/>
    </contour>
  </outline>
</glyph>
<glyph name="hungarumlaut.uc" format="1">
  <advance width="500"/>
  <outline>
    <contour>
      <point x="143" y="851" type="curve" smooth="yes"/>
      <point x="130" y="773" type="line"/>
      <point x="130" y="748" type="line"/>
      <point x="185" y="748" type="line"/>
      <point x="227" y="794" type="line" smooth="yes"/>
      <point x="263" y="835"/>
      <point x="277" y="855"/>
      <point x="277" y="884" type="curve" smooth="yes"/>
      <point x="277" y="915"/>
      <point x="255" y="938"/>
      <point x="216" y="938" type="curve" smooth="yes"/>
      <point x="171" y="938"/>
      <point x="151" y="911"/>
    </contour>
    <contour>
      <point x="327" y="851" type="curve" smooth="yes"/>
      <point x="314" y="773" type="line"/>
      <point x="314" y="748" type="line"/>
      <point x="369" y="748" type="line"/>
      <point x="411" y="794" type="line" smooth="yes"/>
      <point x="447" y="835"/>
      <point x="461" y="855"/>
      <point x="461" y="884" type="curve" smooth="yes"/>
      <point x="461" y="915"/>
      <point x="439" y="938"/>
      <point x="400" y="938" type="curve" smooth="yes"/>
      <point x="355" y="938"/>
      <point x="335" y="911"/>
    </contour>
    <contour>
      <point x="269" y="694" type="move" name="_top"/>
    </contour>
  </outline>
</glyph>
<glyph name="lira.alt" format="1">
  <advance width="560"/>
  <outline>
    <contour>
      <point x="526" y="0" type="line"/>
      <point x="526" y="216" type="line"/>
      <point x="450" y="216" type="line"/>
      <point x="442" y="155" type="line" smooth="yes"/>
      <point x="436" y="120"/>
      <point x="406" y="113"/>
      <point x="325" y="113" type="curve" smooth="yes"/>
      <point x="146" y="113" type="line"/>
      <point x="132" y="79" type="line"/>
      <point x="245" y="117"/>
      <point x="285" y="194"/>
      <point x="285" y="268" type="curve" smooth="yes"/>
      <point x="285" y="372"/>
      <point x="231" y="440"/>
      <point x="231" y="535" type="curve" smooth="yes"/>
      <point x="231" y="601"/>
      <point x="270" y="639"/>
      <point x="323" y="639" type="curve" smooth="yes"/>
      <point x="368" y="639"/>
      <point x="397" y="621"/>
      <point x="417" y="598" type="curve"/>
      <point x="430" y="611"/>
      <point x="426" y="637"/>
      <point x="387" y="638" type="curve"/>
      <point x="387" y="545" type="line"/>
      <point x="516" y="545" type="line"/>
      <point x="516" y="662" type="line"/>
      <point x="487" y="686"/>
      <point x="419" y="719"/>
      <point x="315" y="719" type="curve" smooth="yes"/>
      <point x="164" y="719"/>
      <point x="73" y="635"/>
      <point x="73" y="524" type="curve" smooth="yes"/>
      <point x="73" y="404"/>
      <point x="162" y="346"/>
      <point x="162" y="242" type="curve" smooth="yes"/>
      <point x="162" y="177"/>
      <point x="102" y="129"/>
      <point x="33" y="103" type="curve"/>
      <point x="33" y="0" type="line"/>
    </contour>
    <contour>
      <point x="33" y="476" type="line"/>
      <point x="33" y="409" type="line"/>
      <point x="426" y="409" type="line"/>
      <point x="426" y="476" type="line"/>
    </contour>
    <contour>
      <point x="33" y="329" type="line"/>
      <point x="33" y="262" type="line"/>
      <point x="426" y="262" type="line"/>
      <point x="426" y="329" type="line"/>
    </contour>
  </outline>
</glyph>
<glyph name="lira.proportional" format="1">
  <advance width="619"/>
  <outline>
    <contour>
      <point x="418" y="-10" type="curve" smooth="yes"/>
      <point x="517" y="-10"/>
      <point x="574" y="74"/>
      <point x="596" y="176" type="curve"/>
      <point x="517" y="202" type="line"/>
      <point x="498" y="133"/>
      <point x="473" y="107"/>
      <point x="422" y="107" type="curve" smooth="yes"/>
      <point x="367" y="107"/>
      <point x="317" y="133"/>
      <point x="251" y="194" type="curve"/>
      <point x="225" y="184"/>
      <point x="197" y="149"/>
      <point x="196" y="128" type="curve"/>
      <point x="293" y="39"/>
      <point x="339" y="-10"/>
    </contour>
    <contour>
      <point x="28" y="464" type="line"/>
      <point x="28" y="395" type="line"/>
      <point x="452" y="395" type="line"/>
      <point x="452" y="464" type="line"/>
    </contour>
    <contour>
      <point x="28" y="311" type="line"/>
      <point x="28" y="242" type="line"/>
      <point x="452" y="242" type="line"/>
      <point x="452" y="311" type="line"/>
    </contour>
    <contour>
      <point x="352" y="642" type="curve" smooth="yes"/>
      <point x="400" y="642"/>
      <point x="431" y="623"/>
      <point x="452" y="597" type="curve"/>
      <point x="467" y="610"/>
      <point x="461" y="638"/>
      <point x="426" y="639" type="curve"/>
      <point x="426" y="540" type="line"/>
      <point x="556" y="540" type="line"/>
      <point x="556" y="662" type="line"/>
      <point x="521" y="690"/>
      <point x="448" y="719"/>
      <point x="343" y="719" type="curve" smooth="yes"/>
      <point x="180" y="719"/>
      <point x="82" y="636"/>
      <point x="82" y="523" type="curve" smooth="yes"/>
      <point x="82" y="403"/>
      <point x="171" y="339"/>
      <point x="171" y="228" type="curve" smooth="yes"/>
      <point x="171" y="155"/>
      <point x="129" y="112"/>
      <point x="28" y="86" type="curve"/>
      <point x="28" y="-12" type="line"/>
      <point x="211" y="19"/>
      <point x="302" y="129"/>
      <point x="302" y="251" type="curve" smooth="yes"/>
      <point x="302" y="369"/>
      <point x="248" y="439"/>
      <point x="248" y="534" type="curve" smooth="yes"/>
      <point x="248" y="603"/>
      <point x="289" y="642"/>
    </contour>
  </outline>
</glyph>
<glyph name="manat.proportional" format="1">
  <advance width="684"/>
  <outline>
    <contour>
      <point x="307" y="720" type="line"/>
      <point x="307" y="158" type="line"/>
      <point x="378" y="158" type="line"/>
      <point x="378" y="720" type="line"/>
    </contour>
    <contour>
      <point x="342" y="519" type="curve" smooth="yes"/>
      <point x="458" y="519"/>
      <point x="487" y="388"/>
      <point x="487" y="0" type="curve"/>
      <point x="652" y="0" type="line"/>
      <point x="652" y="342"/>
      <point x="534" y="590"/>
      <point x="342" y="590" type="curve" smooth="yes"/>
      <point x="150" y="590"/>
      <point x="33" y="342"/>
      <point x="33" y="0" type="curve"/>
      <point x="197" y="0" type="line"/>
      <point x="197" y="388"/>
      <point x="226" y="519"/>
    </contour>
  </outline>
</glyph>
<glyph name="naira.proportional" format="1">
  <advance width="739"/>
  <outline>
    <contour>
      <point x="34" y="0" type="line"/>
      <point x="275" y="0" type="line"/>
      <point x="275" y="65" type="line"/>
      <point x="262" y="65" type="line" smooth="yes"/>
      <point x="227" y="65"/>
      <point x="190" y="73"/>
      <point x="190" y="80" type="curve" smooth="yes"/>
      <point x="190" y="685" type="line"/>
      <point x="168" y="683" type="line"/>
      <point x="443" y="0" type="line"/>
      <point x="636" y="0" type="line"/>
      <point x="636" y="607" type="line" smooth="yes"/>
      <point x="636" y="636"/>
      <point x="663" y="646"/>
      <point x="700" y="646" type="curve" smooth="yes"/>
      <point x="711" y="646" type="line"/>
      <point x="711" y="710" type="line"/>
      <point x="470" y="710" type="line"/>
      <point x="470" y="646" type="line"/>
      <point x="483" y="646" type="line" smooth="yes"/>
      <point x="517" y="646"/>
      <point x="554" y="638"/>
      <point x="554" y="631" type="curve" smooth="yes"/>
      <point x="554" y="63" type="line"/>
      <point x="576" y="55" type="line"/>
      <point x="328" y="710" type="line"/>
      <point x="34" y="710" type="line"/>
      <point x="34" y="646" type="line"/>
      <point x="44" y="646" type="line" smooth="yes"/>
      <point x="81" y="646"/>
      <point x="108" y="639"/>
      <point x="108" y="610" type="curve" smooth="yes"/>
      <point x="108" y="106" type="line" smooth="yes"/>
      <point x="108" y="77"/>
      <point x="81" y="65"/>
      <point x="44" y="65" type="curve" smooth="yes"/>
      <point x="34" y="65" type="line"/>
    </contour>
    <contour>
      <point x="29" y="472" type="line"/>
      <point x="29" y="403" type="line"/>
      <point x="161" y="403" type="line"/>
      <point x="162" y="472" type="line"/>
    </contour>
    <contour>
      <point x="341" y="408" type="line"/>
      <point x="581" y="408" type="line"/>
      <point x="599" y="403" type="line"/>
      <point x="711" y="403" type="line"/>
      <point x="711" y="472" type="line"/>
      <point x="329" y="472" type="line"/>
    </contour>
    <contour>
      <point x="598" y="244" type="line"/>
      <point x="711" y="244" type="line"/>
      <point x="711" y="312" type="line"/>
      <point x="599" y="312" type="line"/>
    </contour>
    <contour>
      <point x="29" y="312" type="line"/>
      <point x="29" y="244" type="line"/>
      <point x="423" y="244" type="line"/>
      <point x="408" y="307" type="line"/>
      <point x="153" y="307" type="line"/>
      <point x="134" y="312" type="line"/>
    </contour>
  </outline>
</glyph>
<glyph name="nine.den" format="1">
  <advance width="367"/>
  <outline>
    <contour>
      <point x="58" y="35" type="line"/>
      <point x="168" y="45"/>
      <point x="231" y="105"/>
      <point x="231" y="212" type="curve" smooth="yes"/>
      <point x="231" y="296"/>
      <point x="213" y="316"/>
      <point x="183" y="316" type="curve" smooth="yes"/>
      <point x="153" y="316"/>
      <point x="138" y="293"/>
      <point x="138" y="243" type="curve" smooth="yes"/>
      <point x="138" y="201"/>
      <point x="151" y="173"/>
      <point x="183" y="173" type="curve" smooth="yes"/>
      <point x="211" y="173"/>
      <point x="232" y="196"/>
      <point x="247" y="227" type="curve"/>
      <point x="250" y="191" type="line"/>
      <point x="238" y="161"/>
      <point x="204" y="126"/>
      <point x="146" y="126" type="curve" smooth="yes"/>
      <point x="74" y="126"/>
      <point x="22" y="168"/>
      <point x="22" y="239" type="curve" smooth="yes"/>
      <point x="22" y="318"/>
      <point x="89" y="365"/>
      <point x="183" y="365" type="curve" smooth="yes"/>
      <point x="285" y="365"/>
      <point x="345" y="315"/>
      <point x="345" y="212" type="curve" smooth="yes"/>
      <point x="345" y="88"/>
      <point x="239" y="-1"/>
      <point x="66" y="-14" type="curve"/>
    </contour>
  </outline>
</glyph>
<glyph name="nine.old" format="1">
  <advance width="560"/>
  <outline>
    <contour>
      <point x="77" y="-85" type="line"/>
      <point x="262" y="-69"/>
      <point x="375" y="46"/>
      <point x="375" y="264" type="curve" smooth="yes"/>
      <point x="375" y="428"/>
      <point x="337" y="483"/>
      <point x="276" y="483" type="curve" smooth="yes"/>
      <point x="217" y="483"/>
      <point x="185" y="432"/>
      <point x="185" y="334" type="curve" smooth="yes"/>
      <point x="185" y="249"/>
      <point x="209" y="194"/>
      <point x="272" y="194" type="curve" smooth="yes"/>
      <point x="331" y="194"/>
      <point x="372" y="244"/>
      <point x="400" y="308" type="curve"/>
      <point x="408" y="244" type="line"/>
      <point x="389" y="184"/>
      <point x="330" y="119"/>
      <point x="232" y="119" type="curve" smooth="yes"/>
      <point x="112" y="119"/>
      <point x="24" y="196"/>
      <point x="24" y="331" type="curve" smooth="yes"/>
      <point x="24" y="469"/>
      <point x="126" y="558"/>
      <point x="273" y="558" type="curve" smooth="yes"/>
      <point x="432" y="558"/>
      <point x="534" y="464"/>
      <point x="534" y="261" type="curve" smooth="yes"/>
      <point x="534" y="30"/>
      <point x="361" y="-138"/>
      <point x="89" y="-160" type="curve"/>
    </contour>
  </outline>
</glyph>
<glyph name="one.den" format="1">
  <advance width="346"/>
  <outline>
    <contour>
      <point x="244" y="69" type="curve" smooth="yes"/>
      <point x="244" y="360" type="line"/>
      <point x="146" y="360" type="line"/>
      <point x="125" y="331"/>
      <point x="96" y="315"/>
      <point x="31" y="314" type="curve"/>
      <point x="31" y="248" type="line"/>
      <point x="86" y="247"/>
      <point x="123" y="262"/>
      <point x="138" y="309" type="curve"/>
      <point x="134" y="317"/>
      <point x="135" y="311"/>
      <point x="126" y="304" type="curve"/>
      <point x="126" y="69" type="line" smooth="yes"/>
      <point x="126" y="48"/>
      <point x="98" y="44"/>
      <point x="63" y="44" type="curve" smooth="yes"/>
      <point x="43" y="44" type="line"/>
      <point x="43" y="0" type="line"/>
      <point x="322" y="0" type="line"/>
      <point x="322" y="44" type="line"/>
      <point x="309" y="44" type="line" smooth="yes"/>
      <point x="271" y="44"/>
      <point x="244" y="48"/>
    </contour>
  </outline>
</glyph>
<glyph name="ruble.proportional" format="1">
  <advance width="609"/>
  <outline>
    <contour>
      <point x="38" y="382" type="line"/>
      <point x="327" y="382" type="line" smooth="yes"/>
      <point x="399" y="382"/>
      <point x="441" y="429"/>
      <point x="441" y="514" type="curve" smooth="yes"/>
      <point x="441" y="595"/>
      <point x="399" y="635"/>
      <point x="332" y="635" type="curve" smooth="yes"/>
      <point x="270" y="635" type="line"/>
      <point x="270" y="75" type="line" smooth="yes"/>
      <point x="270" y="68"/>
      <point x="303" y="65"/>
      <point x="329" y="65" type="curve" smooth="yes"/>
      <point x="354" y="65" type="line"/>
      <point x="354" y="0" type="line"/>
      <point x="38" y="0" type="line"/>
      <point x="38" y="65" type="line"/>
      <point x="48" y="65" type="line" smooth="yes"/>
      <point x="85" y="65"/>
      <point x="112" y="72"/>
      <point x="112" y="101" type="curve" smooth="yes"/>
      <point x="112" y="610" type="line" smooth="yes"/>
      <point x="112" y="639"/>
      <point x="85" y="646"/>
      <point x="48" y="646" type="curve" smooth="yes"/>
      <point x="38" y="646" type="line"/>
      <point x="38" y="710" type="line"/>
      <point x="337" y="710" type="line" smooth="yes"/>
      <point x="499" y="710"/>
      <point x="597" y="639"/>
      <point x="597" y="517" type="curve" smooth="yes"/>
      <point x="597" y="393"/>
      <point x="493" y="314"/>
      <point x="334" y="314" type="curve" smooth="yes"/>
      <point x="38" y="314" type="line"/>
    </contour>
    <contour>
      <point x="421" y="170" type="line"/>
      <point x="38" y="170" type="line"/>
      <point x="38" y="238" type="line"/>
      <point x="421" y="238" type="line"/>
    </contour>
  </outline>
</glyph>
<glyph name="rupeeIndian" format="1">
  <advance width="560"/>
  <outline>
    <contour>
      <point x="57" y="520" type="line"/>
      <point x="57" y="445" type="line"/>
      <point x="540" y="445" type="line"/>
      <point x="540" y="520" type="line"/>
    </contour>
    <contour>
      <point x="112" y="269" type="line"/>
      <point x="142" y="269" type="line" smooth="yes"/>
      <point x="326" y="269"/>
      <point x="437" y="353"/>
      <point x="437" y="473" type="curve" smooth="yes"/>
      <point x="437" y="574"/>
      <point x="377" y="643"/>
      <point x="217" y="657" type="curve"/>
      <point x="192" y="685"/>
      <point x="114" y="693"/>
      <point x="186" y="636" type="curve"/>
      <point x="540" y="636" type="line"/>
      <point x="540" y="710" type="line"/>
      <point x="57" y="710" type="line"/>
      <point x="57" y="632" type="line"/>
      <point x="123" y="632" type="line" smooth="yes"/>
      <point x="235" y="632"/>
      <point x="281" y="576"/>
      <point x="281" y="484" type="curve" smooth="yes"/>
      <point x="281" y="391"/>
      <point x="239" y="332"/>
      <point x="113" y="332" type="curve" smooth="yes"/>
      <point x="57" y="332" type="line"/>
      <point x="57" y="269" type="line"/>
      <point x="309" y="0" type="line"/>
      <point x="507" y="0" type="line"/>
      <point x="507" y="64" type="line"/>
      <point x="495" y="64" type="line" smooth="yes"/>
      <point x="466" y="64"/>
      <point x="448" y="71"/>
      <point x="428" y="92" type="curve" smooth="yes"/>
      <point x="212" y="310" type="line"/>
    </contour>
  </outline>
</glyph>
<glyph name="six.lin" format="1">
  <advance width="560"/>
  <outline>
    <contour>
      <point x="468" y="665" type="line"/>
      <point x="300" y="630"/>
      <point x="187" y="495"/>
      <point x="187" y="290" type="curve" smooth="yes"/>
      <point x="187" y="122"/>
      <point x="226" y="65"/>
      <point x="287" y="65" type="curve" smooth="yes"/>
      <point x="341" y="65"/>
      <point x="371" y="124"/>
      <point x="371" y="230" type="curve" smooth="yes"/>
      <point x="371" y="319"/>
      <point x="348" y="378"/>
      <point x="291" y="378" type="curve" smooth="yes"/>
      <point x="233" y="378"/>
      <point x="192" y="330"/>
      <point x="162" y="267" type="curve"/>
      <point x="154" y="330" type="line"/>
      <point x="176" y="389"/>
      <point x="234" y="453"/>
      <point x="331" y="453" type="curve" smooth="yes"/>
      <point x="448" y="453"/>
      <point x="533" y="374"/>
      <point x="533" y="234" type="curve" smooth="yes"/>
      <point x="533" y="86"/>
      <point x="433" y="-10"/>
      <point x="290" y="-10" type="curve" smooth="yes"/>
      <point x="136" y="-10"/>
      <point x="28" y="87"/>
      <point x="28" y="292" type="curve" smooth="yes"/>
      <point x="28" y="513"/>
      <point x="201" y="699"/>
      <point x="456" y="740" type="curve"/>
    </contour>
  </outline>
</glyph>
<glyph name="three.lin" format="1">
  <advance width="560"/>
  <outline>
    <contour>
      <point x="265" y="641" type="curve" smooth="yes"/>
      <point x="214" y="641"/>
      <point x="179" y="613"/>
      <point x="158" y="579" type="curve"/>
      <point x="157" y="599"/>
      <point x="162" y="637"/>
      <point x="190" y="641" type="curve"/>
      <point x="190" y="531" type="line"/>
      <point x="62" y="531" type="line"/>
      <point x="62" y="638" type="line"/>
      <point x="99" y="678"/>
      <point x="176" y="719"/>
      <point x="280" y="719" type="curve" smooth="yes"/>
      <point x="410" y="719"/>
      <point x="507" y="660"/>
      <point x="507" y="550" type="curve" smooth="yes"/>
      <point x="507" y="432"/>
      <point x="385" y="371"/>
      <point x="227" y="371" type="curve"/>
      <point x="246" y="386" type="line"/>
      <point x="455" y="386"/>
      <point x="532" y="309"/>
      <point x="532" y="199" type="curve" smooth="yes"/>
      <point x="532" y="67"/>
      <point x="420" y="-10"/>
      <point x="275" y="-10" type="curve" smooth="yes"/>
      <point x="130" y="-10"/>
      <point x="56" y="67"/>
      <point x="20" y="158" type="curve"/>
      <point x="89" y="207" type="line"/>
      <point x="115" y="146"/>
      <point x="161" y="70"/>
      <point x="254" y="70" type="curve" smooth="yes"/>
      <point x="326" y="70"/>
      <point x="373" y="116"/>
      <point x="373" y="203" type="curve" smooth="yes"/>
      <point x="373" y="283"/>
      <point x="337" y="338"/>
      <point x="224" y="338" type="curve" smooth="yes"/>
      <point x="168" y="338" type="line"/>
      <point x="168" y="414" type="line"/>
      <point x="210" y="414" type="line" smooth="yes"/>
      <point x="304" y="414"/>
      <point x="353" y="454"/>
      <point x="353" y="541" type="curve" smooth="yes"/>
      <point x="353" y="612"/>
      <point x="317" y="641"/>
    </contour>
  </outline>
</glyph>
<glyph name="uni20B4.proportional" format="1">
  <advance width="640"/>
  <outline>
    <contour>
      <point x="35" y="464" type="line"/>
      <point x="35" y="396" type="line"/>
      <point x="605" y="396" type="line"/>
      <point x="605" y="464" type="line"/>
    </contour>
    <contour>
      <point x="35" y="324" type="line"/>
      <point x="35" y="256" type="line"/>
      <point x="605" y="256" type="line"/>
      <point x="605" y="324" type="line"/>
    </contour>
    <contour>
      <point x="314" y="641" type="curve" smooth="yes"/>
      <point x="386" y="641"/>
      <point x="415" y="607"/>
      <point x="415" y="561" type="curve" smooth="yes"/>
      <point x="415" y="500"/>
      <point x="371" y="463"/>
      <point x="289" y="433" type="curve"/>
      <point x="495" y="429" type="line"/>
      <point x="538" y="458"/>
      <point x="559" y="501"/>
      <point x="559" y="557" type="curve" smooth="yes"/>
      <point x="559" y="650"/>
      <point x="486" y="720"/>
      <point x="333" y="720" type="curve" smooth="yes"/>
      <point x="216" y="720"/>
      <point x="138" y="681"/>
      <point x="108" y="659" type="curve"/>
      <point x="108" y="542" type="line"/>
      <point x="222" y="542" type="line"/>
      <point x="222" y="646" type="line"/>
      <point x="191" y="648"/>
      <point x="179" y="602"/>
      <point x="187" y="585" type="curve"/>
      <point x="214" y="618"/>
      <point x="254" y="641"/>
    </contour>
    <contour>
      <point x="346" y="70" type="curve" smooth="yes"/>
      <point x="272" y="70"/>
      <point x="231" y="104"/>
      <point x="231" y="166" type="curve" smooth="yes"/>
      <point x="231" y="218"/>
      <point x="266" y="270"/>
      <point x="340" y="292" type="curve"/>
      <point x="141" y="295" type="line"/>
      <point x="105" y="268"/>
      <point x="85" y="227"/>
      <point x="85" y="175" type="curve" smooth="yes"/>
      <point x="85" y="60"/>
      <point x="172" y="-10"/>
      <point x="330" y="-10" type="curve" smooth="yes"/>
      <point x="439" y="-10"/>
      <point x="529" y="30"/>
      <point x="572" y="64" type="curve"/>
      <point x="572" y="196" type="line"/>
      <point x="451" y="196" type="line"/>
      <point x="451" y="77" type="line"/>
      <point x="483" y="75"/>
      <point x="500" y="130"/>
      <point x="493" y="139" type="curve"/>
      <point x="455" y="96"/>
      <point x="414" y="70"/>
    </contour>
  </outline>
</glyph>
<glyph name="zero.den" format="1">
  <advance width="374"/>
  <outline>
    <contour>
      <point x="187" y="366" type="curve" smooth="yes"/>
      <point x="93" y="366"/>
      <point x="23" y="295"/>
      <point x="23" y="179" type="curve" smooth="yes"/>
      <point x="23" y="65"/>
      <point x="93" y="-7"/>
      <point x="187" y="-7" type="curve" smooth="yes"/>
      <point x="281" y="-7"/>
      <point x="351" y="65"/>
      <point x="351" y="180" type="curve" smooth="yes"/>
      <point x="351" y="295"/>
      <point x="281" y="366"/>
    </contour>
    <contour>
      <point x="187" y="45" type="curve" smooth="yes"/>
      <point x="157" y="45"/>
      <point x="143" y="75"/>
      <point x="143" y="179" type="curve" smooth="yes"/>
      <point x="143" y="284"/>
      <point x="157" y="315"/>
      <point x="187" y="315" type="curve" smooth="yes"/>
      <point x="217" y="315"/>
      <point x="231" y="285"/>
      <point x="231" y="180" type="curve" smooth="yes"/>
      <point x="231" y="75"/>
      <point x="217" y="45"/>
    </contour>
  </outline>
</glyph>
<glyph name="zero.slashold" format="1">
  <advance width="560"/>
  <outline>
    <contour>
      <point x="150" y="103" type="line"/>
      <point x="424" y="365" type="line"/>
      <point x="413" y="443" type="line"/>
      <point x="137" y="180" type="line"/>
    </contour>
    <contour>
      <point x="285" y="65" type="curve" smooth="yes"/>
      <point x="214" y="65"/>
      <point x="179" y="125"/>
      <point x="179" y="273" type="curve" smooth="yes"/>
      <point x="179" y="421"/>
      <point x="213" y="482"/>
      <point x="280" y="482" type="curve" smooth="yes"/>
      <point x="347" y="482"/>
      <point x="381" y="421"/>
      <point x="381" y="273" type="curve" smooth="yes"/>
      <point x="381" y="125"/>
      <point x="348" y="65"/>
    </contour>
    <contour>
      <point x="280" y="-12" type="curve" smooth="yes"/>
      <point x="432" y="-12"/>
      <point x="539" y="100"/>
      <point x="539" y="273" type="curve" smooth="yes"/>
      <point x="539" y="447"/>
      <point x="432" y="558"/>
      <point x="280" y="558" type="curve" smooth="yes"/>
      <point x="129" y="558"/>
      <point x="22" y="447"/>
      <point x="22" y="273" type="curve" smooth="yes"/>
      <point x="22" y="100"/>
      <point x="129" y="-12"/>
    </contour>
  </outline>
</glyph>
